<svg xmlns="http://www.w3.org/2000/svg" xmlns:inkpad="http://taptrix.com/inkpad/svg_extensions" width="973.7" height="1201" viewBox="0 0 730.3 900.7"><defs><clipPath id="a" clipPathUnits="userSpaceOnUse"><path d="M64 155h730v901H64z" style="fill:none;fill-rule:evenodd;stroke:#000;stroke-width:1.5"/></clipPath></defs><g style="display:inline"><path d="M94 70h529v742H94z" style="fill:#fff;fill-opacity:1;fill-rule:evenodd;stroke:#000;stroke-width:1.5;stroke-linejoin:round" transform="translate(4 13)"/></g><g style="display:inline"><g inkpad:layerName="Untitled" fill="#393955" clip-path="url(#a)" style="fill:#090b0b;fill-opacity:1" transform="translate(-64 -155)"><path d="M1052-1H-2c-5-2-8 5-7 9l1 1064c5 6 13 2 20 3h1061q2-109 1-220l-3-846c0-3 2-8-2-10zM429 275c3 0-2 4-2 1zm-18 1q2 2-1 2-2 2-2 0 2 0 2-2zm-5 1c3 0 1 6-2 6-14 6-31 8-44 17q-28 16-55 34-19 12-37 27 28-20 58-36 25-16 52-28c20-6 42-6 62-9q6-1 6 4-1 6-7 5c-23 5-47 6-69 15q-15 7-28 16c17-7 33-19 52-18q5 2 10-1c4-3 10-1 15-3q16-2 34-3c9 2 16 8 25 9-1-3-7-2-7-6q4-3 9-1 6 0 6 6 1 6-3 11-6 2-14-1c-11-4-22-8-33-4q-6 3-12 2-2-3-4-1-4 0-6 2 3 1 4 3 14-4 27-1 20 6 40 15 20 7 37 21l1 7q3 1 5 5 6-1 6 5c1 4 4 9-1 12q-5 1-7-5-2-1-2 1-1 6-3 10-1 6-6 8c4-1 11 1 10 6 3-3-2-7 0-11 2-5 8-9 12-4 3 5 0 11 0 16q0 7-5 12l-2 3q8 1 9 8c0-4-3-9-1-13q6-12 20-10 7 1 8 8c5 4 2 12-1 17q3 6 5 13c0 1-1 5 1 3 5-2 11 4 10 9l1 4c2-6 11-7 13-1q5 11-3 18-2 5-5 9c-2 2 2 2 2 4 2 5-3 10-8 7q-2-1-2-4-4 3-4 6 4 8 0 16 0 10-7 16-1 4 2 7c1 3 2-2 3-3 2-4 9-8 13-3q7 7 3 16 1 4 3 8c2-5 9-7 12-2q4 7-1 14l1 8q4-1 7 1c0-6 6-10 7-16q4-8 11-5c5 5 4 14 0 19-2 5-6 11-12 10-2 0-4-3-3 0q2 4 4 1c6-3 13 4 11 10-2 7-12 10-18 6l-11-1q5 4 3 11 6-7 13-3h6c2 1 5 4 7 1q3 0 1-2c-3-4-3-12 3-13 7-1 10 11 4 14 7 5 4 16-3 20q-10 4-18-4l2 12c4-4 12-5 15 1s-3 13-8 15q-6 4-13 3 6 6 6 13-2 3 1 3 8 3 5 12c6-1 9 5 7 10q2 0 5-1c2-2-2-4-2-7q-1-8 1-16-7 2-11-4-1-8 8-12 7-4 14 0 4 5 1 9 2 4 3 7 1 5-3 9l1 16q5 1 6 6c2 6-4 14-10 11q-3-2-3-6-3 1-2 3 4 7 1 12 4 7-2 11c-3 4-2 11-7 13l-5-2c1 5 3 12-2 16q-7 3-9-5-2 3-2 3c5 2 6 9 1 12q8 3 5 10c-3 5-10 8-11 14q5 6 2 14l-7 13q-3 4-6 7c-3 6-12 6-16 2q-5-6-2-11 5-4 6-10 6-7 6-16 0 0-1 3c-1 6-7 11-9 17q-4 7-11 4l-3-4c-4 2-8 7-12 4q-6-2-5-8l1-3q-5 4 1 10 0 3-1 8c5 2 12 2 14 8 2 7-4 16-12 16q-6 2-12 2-11-1-21 5 7-4 14 0 2 4 0 8 4-2 7-6c1-3 5-7 9-4 3 2 2 8-1 10-3 5-9 10-15 7q-3-2-1-4c-6 4-6 12-9 19l-16 4q3 5-1 9 8-2 10-8c2-3 7-2 7 1q-1 5 2 7 9 1 11 9c1 9-7 16-15 18q-6 2-8-4c1-5 10-3 13-8q3-6-3-7h-11q-7 1-11-2l2-5q-9 6-20 8-8 4-16 1c-2 0 1 3-1 4-3 3-9-2-6-5v-2q-2-4-1-7-9 8-21 9-8 0-8-6 3-5 8-5h-15c5 3 2 10-1 14q-4 3-4 7c1 2 6 2 5 5-4 6-14 3-15-3-2-5 0-10-4-14l-4 4c4-1 6 6 2 8q-3 2-7 0 3 6-4 7c-4-1-8-5-12-4q-11-2-20 3-4 5-9 0l-6-8q-8-7-5-15c1-2 4-4 1-2q-5 3-6 8l-1 3c4-3 9 2 8 6 0 5-7 6-9 2q-2-3 0-7c-2 3-7 0-5-3q0-4-2-2 0 3 2 8 4 5 9 8c4 2 11 2 12 7q-3 6-9 3-4 0-3 3c4 4 11 0 13-4 4-2 8 3 5 6q-2 7 5 7 11 3 23 0c1-1-2-5 1-6q4 4 9 5c6 2 12-6 9-11q-5-2-6-6c1-4 8-3 9 1l5 9q1 4 4 6 7 5 13 0 3-2 2-4c-5 0-12 2-16-2 0-6 7-6 12-7q7 2 14 6c0-4-5-3-7-5q-9-5-5-14c3-4 10-7 13-2 2 4-3 8-6 10q4 2 9 1c7-1 10-10 18-10q10 1 18-3 10-6 22-5 1 3 1 5 4-5 8-2 1 7-7 10c-2 3-8 0-6-3-19 8-40 10-56 22q-5 1-6 7-4 7-13 6-30 0-60 1c-25-2-47-19-57-42-3-8-2-16-6-24q-5-10-3-21 0-14-7-24c-2-5 1-10-2-15q-3-9-5-19-5-18-7-37-4-21-12-40-5-16-4-33l-1-8c-6 4-13-2-13-8q-9-33-8-68c0-22-3-44 4-65q3-4 2-9c-4-6 1-12 3-18q0-3 2-8 4-6 12-5 2 0 1-1-4-5-2-11-8 3-11-5c0-7 8-11 14-12q17-4 32 0 5 2 9-2 13-20 4-41l-9-1q-8-1-13-5-5 0-6-4-2 7-8 7-5 0-7-2 0 8-7 11-4 3-5 8c-1 2-5 2-4 5q5 10-5 19c-4 4-11 10-10 18 0 5-6 10-10 6-6-5-4-14-3-20l5-13c-5-3-4-11-1-15q7-12 12-26 14-19 17-42 1-11 9-18v-6q3-7 9-12 22-22 50-35l30-17q25-11 51-18zm51 6c4 2-3 6-2 2zm12 3c5 4 11 3 16 6 7 2 16 1 21 8q1 6-5 5c-2 0-2-4-5-3q-12-1-22-7-5-2-10-2-1-5 3-6zm-129 5c3 5-2 9-6 11q-4 1-4-4 4-4 9-6zm126 11c4 0 0 6-2 3q-1-2 2-3m-152 1c3 2 0 5-1 7q-6 4-13 6-3-1 0-3c4-4 8-10 14-10m155 1c3 0-1 5-2 2zm27 4q6 1 2 6 3 3-2 4-4 3-5-2c-3-1-1-7 2-5q0-3 3-3m-199 7c4 0-1 5-2 2zm193 4c3 1 8 1 7 5 0 3-5 7-7 4q0-4-2-6-3 2-2-3zm-112 4q-4 1-3 4-1 3-4 1-2 2 0 2 2 4 5 2c7-2 14-8 22-4q7 3 14 0-6 2-10-4c-4-1-7 3-11 1-4 0-9-4-13-2m141 56q-1 2 1 2 0-2-1-2m-10 26q-1 0 0 0m-45 7q-9 3-20 1l2 2v7c6-8 20-8 26 1 5 1 12-2 16 3 2 2 2 6 3 3l4-4c-11-2-19-10-30-13zm63 2q1 0 0 0m-11 7q-2 1 1 1zm19 16-5 1q2 6 1 12l1-6q0-3 3-7m-6 15q-6 3-10 6-3 14-15 23 4-3 6-5 11-11 19-24m72 20c8 0 7 13 0 13-8 0-8-14 0-13m7 15c9 1 10 18 0 20l2 1c5 4 2 14-5 13-7-2-6-14 1-14-6-2-8-11-4-16q2-3 6-4m-334 10 2 5 6-4q-4-2-8-1m352 8c9 1 8 16 0 17-6 1-9-5-8-10q2-6 8-7m-12 36c9 0 10 16 1 17-8 3-14-10-7-15q2-3 6-2m18 3c7-1 8 11 1 12-6 1-8-10-2-12zm-99 7c-4 8-2 17-7 25q-3 4-10 5-3 4-3 9l5 5q3 7 2 13c8 3 6 16-2 18-3 1 0 4 0 5q7 13 17 24 4 8 10 15c1 1 1-3 2-4l3-4q-1-10 8-15l-4-8c-5 6-16 4-17-4q-3-11-1-22c-8 3-17-5-15-13-1-7 0-16 8-19 1-1 5 1 3-2a80 80 0 0 1 1-28m36 1q0 1 0 0m-161 1c-4 2-9-1-12 3 0 7-8 12-15 9-2-1-4-5-7-4-9 0-20-4-29 3q-6 2-10 6c-2 4-8 3-11 6 4 7-6 17-13 12q-2-3-4-4-5 0-9-3-8 1-16 4-2 9-10 8c-3 0-5-4-8-4q-3 10 6 17 8 8 12 18 15-17 37-23c8-5 17-12 28-12 7 0 11-5 17-7q11 0 17-7c8-7 24-1 23 10l-1 5c4-1 10-2 10-7l4-22-1-2zm227 23c9 1 9 16 1 18-5 1-7-5-7-9 1-3 2-9 6-9m-45 10c0 3-4 7 0 9q3 5 7 6-5-6-1-13zm9 32q-5 2-10 1l-1 5q4-3 10-1zm51 25c6 0 4 11-1 10s-4-10 1-10m-63 7q0-1 0 0m-21 18c-1 1 2 0 0 0m-16 10q1 0 0 0m43 5q-3 0-2 2h4q1-2-2-2m-16 16q-1 3 2 2 0-1-2-2m38 8q0 3 0 0m0 5-2 15q3-2 6-1-3-6 1-10-5-1-5-5zm13 2-2 1q3 0 2-2zm-71 8q0 4 0 0m-3 16q1 0 0 0m13 2q-3 0-1 1c1 1 2-2 1-1m47 10q1 3 1 1 0-1-1-1m-44 1q-2 4-8 6-1 3 0 1c3-3 10-3 12 2q3-5 5-9-4 2-9-1zm22 9-8 9 4 5zm-31 0q-2 4-2 7 7 4 6 12 4-2 6-6l5-4q0-2-2-2c-1 6-11 6-13 0zm65 7c6 0 6 12 0 11-7 1-8-12 0-11m-40 13q-3 3-8 3 4 2 7 3zm-23 5q-3 5 1 6c4 1 7 7 3 10-2 1 2 5 2 2 1-3 6-6 5-10q-7 0-10-6 0-3-1-2m55 36c8 3 9 17 1 21q-4 1-7 4c-3 1-6-3-2-4q2-4 5-7 3-4 1-9-1-4 2-5m-29 1q2 2 0 0m-43 11c-1 1 3 2 1 1zm31 3c5-1 11 7 6 12q-3 0-3 3c0 6-6 10-10 13-3 1-5-3-2-4q3-6 4-13-2-5 1-10zm32 10c7 1 6 14-1 14-8-1-6-14 1-14m-20 9c5 0 13 2 13 8 0 5-8 7-8 13 3 1-1 4-3 3-5 1-10-3-15 0q-11 1-20 5-7 6-15 8-6 4-13 3-3-7 5-10 3-1 2-2c-4 0-7-5-4-7q6-2 10 2-1 3 1 1c6-4 13-10 21-9q7 0 12-6 6-7 14-9m-73 10q-8 8-12 16c3-3 10-1 12-7zm-59 9q-1 10-11 13 4 2 6-1c5-3 13 3 11 9q1-8-2-14 1-4-3-6zm36 1q-3 3-8 2 3 5 0 10c5-1 9 6 5 9s-9-3-7-7h-8q1 5 5 8c1 3-4 6-6 2-2-1-6 3-2 3 5 2 9-4 15-4q6-1 11-7 3-1 4-3-2 1-3 1-5-3-6-10zm93 11c4 0-1 4-1 1q-1-2 1-1m-170 2c-1 0-5 1-2 2q4 2 4 7 2 1 4-1-5-1-3-7zm147 2c4 0 3 8-1 8-2 4-10 0-6-4q2-4 7-4m14 2c4 0 2 7-1 5-4-1-1-5 1-5m-173 2-7 2q4 1 6 1zm141 1c3 2-1 5-3 6-3 1-7-2-4-4zm-155 2c-4 0-9 4-7 8 1 1 2 4 2 1q0-5 5-9m178 3c4 1-1 7-2 4q-1-3 2-4m-182 11q1 4 6 4l3 1c-1-1 1-4-2-3q-3 1-7-2m-16 11q4 0 6 3c-2 5-9 6-11 11 1 2 5 5 2 6q-8 1-8-5c1-6 3-14 11-15m13 1c4 1 4 8 9 7q7 5 2 11-8-4-14-12 0-5 3-6m101 4q5 6 0 14-4 4-9 3c2-5 2-14 8-17zm-107 7c5 2 2 11-3 9-2-3 2-5 2-8zm91 0c6 1 1 11-4 9-4-3 0-9 4-9" style="fill:#090b0b;fill-opacity:1"/><path d="M447 696c-2 9-15 13-21 6l-3-4c-2 4 3 5 3 9q0 9-10 11c-12 3-25-3-37-2-6-1-12 2-18 0q-8-1-14-6c-5 0-10-3-15-1q-1 2 1 2c6 2 8 12 2 15q-6 5-13 3 6 7 4 19c-2 6-10 9-15 5-9-6-7-24 5-26h3q-4-4-3-9-14-1-23 10-5 2-9 2 1 8 3 14 1-9 6-16 9-1 11 6 1 9-2 18c-1 4-7 6-10 3l5 18q5 1 7-3 7-11 19-8 7 2 11-4c8-10 19-19 32-18 11-1 20-9 30-10 16-4 32-2 47-5 8-1 12-10 19-13l-4-10q-8-1-11-6m-75 8c1 2 2-1 0 0m100 20c8 4-1-1 0 0m-92 62-15 5q3 3 5 0 4-3 10-4 2-2 0-1m39 5-7 1 6 3zm-67 5q-3 1-1 3v3q-1-3 2-6zm106 1c-3 0-3 4-2 4zm-148 6q1-1 0 0m115 7q1 3 2 1 0-1-2-1m15 4zm13 1q-1 0 0 0m-28 6v4zm-31 1q-1 2 1 1 2 0-1-1m-56 8q-4 5-10 5-2 3 1 1 6-2 8 5c0 5-1 12-7 12q-8-2-7-9-3 6 2 8 5 6 0 13c-1 0-3 4-1 3 4-3 3-8 7-11l15-12q-4-2-6-6 2-8 8-5 1-2-2-1-4-2-8-3m26 8q1 0 0 0M402 361q-3 1 0 2zm-7 7zm19 4q-3 0-2 1 3 1 2-1m9 9c-5 5-12 2-18 4q-4 4-8 4-6 0-12 3c-2 0 2 2 1 4q1 8-7 9-2 4-3 7c7 1 5 12-2 11q-3-1-4-6-5 1-8-1l-2 7c6 3 3 15-4 13q-4-1-6-5c-2 0-5-3-5 1q-4 5 1 11c2 2 5-1 7-1q10 1 17 8 1 4 4 5t2-2q0-14 6-29 3-14 15-20c11-5 23-4 34-7q6-3 12-4 6 0 11-4 3-1-1-1-7-3-16-5c2 6-7 9-11 5q-2-3-1-6zm-68 79q-3 6-1 12 1 4 4 7 4 0 4-3-3-8-1-15-3-1-6-1M368 889l1 1zm18 9q-8 4-8 10c3 2 3-3 4-4q3-2 4-6M315 391v2zM440 851q1 1 0 0M545 807q-1 3 1 2 3-2 2-2zM483 686q-6 1-5 4 1-3 5-3zm-4 9c-1 2 2 0 0 0q-1-2 0 0M540 835q0 3 1 1zm-4 8q-1 3-1 5v1zM303 373l-7 1 11 1q-1-2-4-2M345 352l-3 4zM493 776q-3 5-4 9l1-4zM510 535q-3 1-1 2c0 1 3-3 1-2m-5 2-7 2zM504 373l4 3zM554 465q1 2 0 0M258 623l2 3zM311 839q-1 4 3 3 0-3-3-3M455 860l-2 2 4-2zM380 760l-4 4q3 0 4-4M508 468l-5 8v1q2-5 5-10zM480 865q-1 4 1 7zM380 510zm7 8q1 2 0 0M416 766q1 1 0 0M324 357l-4 6zM363 378q0 1 3 1 0-1-3-1M436 354zq2-1 0-1M447 531l5 9q-1-6-5-10zM495 858q1 4 0 0-1-2 0 0M500 593l1 6q1-4-1-6M472 660v9zM441 484l20 2q-11-2-21-2zM369 928q-5 1-10 3l12-3zM450 349h1zM364 911q-4 2-1 4v4q2-5 1-8M324 543q-4 8-6 17l7-19zM387 869q0 1 0 0M398 860l4 3q-4-1-4-3M313 781q3 2 2 0zM318 885v2zM280 698v5-6zM503 390q-1 2 0 0M527 541l-1 7zM506 773v5zM473 839l-3 2zM532 821l-3 2zM361 396zM425 879q-1 3 0 0M362 863l-2 1zM572 582q-2 2-1 5zM456 380q2 1 0 0M472 878zM406 745v2zM256 441zM321 908c-2 0-1 5 1 3q2-2-1-3M479 592l-4 1q5 1 8-2zM435 773c-1 1 1-2 0 0M339 895zM513 741q-2 2-1 4zM451 368q0 1 0 0M494 680h4zM330 894zM458 499q2 2 0 0M345 404q0-1 0 0m-7 2c-1 2 2 1 0 0M510 842q-1 3 0 0M517 780l-1 3zM487 551q1 3 2 3zM273 650l1 7zM518 559l-3 4zM531 805q-1 3 0 0 0 1 0 0M511 754q1 1 0 0M435 753c0 1 1 4 1 1zM381 381q-1 2 0 0M308 828q0 1 0 0M495 815l-1 2q3-2 1-2M505 640zl3-2zM497 760q2-1 0 0M464 738c-2 1 1-1 0 0M386 372q-2 1 0 0M483 722c-1 1-4 1-1 2zM369 902zM354 511q2 1 0 0M334 445c-2 0 2 0 0-1zM533 516q-2 2 0 0M493 877zM418 892q0 1 0 0M321 923q-1 1 0 0M519 828zM473 408q2 1 0 0M329 912q0-1 0 0M307 813v5zM519 732l-1-7 1 1zM413 529v4l-1 1zM461 744c-2-1 2 5 1 2q-2-2 0-2zM419 356zM369 920c3 1-1-1 0 0M508 594zM432 325q2 0 0 0M452 575q1 1 0 0M427 772q2 0 0 0M501 560l1 3M502 563l-1-3M362 902q1 0 0 0M279 583l4 1v1zM431 768q1 0 0 0M464 444q0 1 0 0M386 859q1 0 0 0M484 847q2 1 0 0M461 748q2 0 0 0M536 489v-2l1 4zM515 852q2 0 0 0M571 501q1-1 0 0M368 502q1 1 0 0M352 510l-2-2zM452 631l-1-3zM435 360q1 1 0 0M365 901q0 1 0 0M422 554l1-2 1 2zM338 877q-1 1 0 0M287 584c0 2 2-1 0 0M294 584zl-1 1M294 585zM382 519l-3-1zM345 387q1 0 0 0M357 657v-3h1zM263 659l-2 1zM383 671l-2-1 2-1zM444 829c1 1 0-2 0 0M328 692l2-1v2zM446 826q1-1 0 0M498 705v3h-1zM484 823" style="fill:#090b0b;fill-opacity:1"/><path d="M393 419c0 2 1-1 0 0M461 445q1 1 0 0M293 805q2 0 0 0M426 773l3 1zM347 813l1 2h-1zM342 816q1 0 0 0M307 821q2 0 0 0M543 720l2-1v1zM303 711l2-1v1zM356 689h1zM491 674l2 1zM462 674l2-1v1zM397 835q-1 0 0 0M395 836l2 1zM521 668l2-1v1zM499 843q0-1 0 0M452 631v2zM411 336c-1 0 2-1 0 0M502 608l-1 1-1-1zM388 369l1-2zM274 594v1zM472 872q2-2 0 0M345 876q1-1 0 0M484 329l2 1zM286 584l-2-1zM276 583v1zM296 584l1-2zM450 574h-2zM421 373q1 1 0 0M388 563zM501 560l-2-1zM387 561l-1-2h1zM346 894q1 1 0 0M555 544h2v1zM335 533h2zM536 531h1zM475 531l2-1v1zM384 382l1-2zM374 500l1 2h-1zM514 452h-2zM304 439q2 1 0 0M498 412h-2zM394 432zM393 418zM327 417h1zM350 420h1zM349 422zM393 422zM348 422zM505 414zM328 414zM512 412l1 1zM498 412l1 1zM342 412l1 1zM342 412zM337 408zM252 444v1zM561 447zM340 404zM373 402zM510 450zM514 452l1 1zM328 456h1zM568 468zM546 473zM506 387zM505 387zM373 503l1 1zM375 504h1zM350 508zM379 384v1zM574 509zM356 514v1zM388 515zM383 382zM530 521l-1 1zM448 382zM440 523c1 2 1-1 0 0M357 526zM357 526zM398 526l1 1zM516 381zM512 379l1 1zM510 379l1 1zM335 533v1zM335 536l1-1zM335 537l1 1zM344 539q1 0 0 0M340 540zM370 378zM315 377zM453 550l1-1zM455 551l1-1zM336 552c1 3 2-1 0 0M506 553v1zM426 554l1 1zM429 558zM430 559zM431 560zM388 562zM385 563q1-1 0 0M337 569zM419 372l1 1zM337 571zM583 571l1 1zM448 573zM450 574zM272 575zM451 576v1zM455 577zM454 576c-1 3 2 1 0 0M456 579q2-2 0 0M272 583zM294 584zM275 584v-1zM499 586zM500 586zM490 587zM498 588zM271 590l1 1zM487 590l1 1zM456 369zM505 597zM367 607l1 1zM502 608zM359 613l1-1zM367 614l1-1zM451 628zM453 634l1 1zM421 364h1zM419 363l1 1zM500 641zM458 363zM501 642zM502 643zM502 644zM433 646v1zM420 362h1zM466 650l1-1zM441 651l1 1zM260 652zM437 652zM446 654zM372 658c-1 2 2-1 0 0M263 659l1 1zM260 660zM372 660l1 1zM272 662zM369 665q2-2 0 0M379 360zM484 676zM259 680zM488 680l1-1zM259 680v1zM455 683zM501 682l1 1zM345 683l1 1zM417 683l1 1zM420 683l1 1zM536 685zM536 685l-1 1zM414 687zM534 687l1 1zM308 688l1 1zM306 689l1 1zM328 692zM332 693zM289 700l1-1zM401 699zM289 701zM291 708l1 1zM308 710zM303 711zM518 711zM416 355h1zM543 717l1-1zM551 737l1-1zM463 743zM509 744zM439 749zM363 750zM439 749zh-1zM510 749l1 1zM438 750l-1 1zM439 750l1 1zM499 758zM438 761zM502 762l1-1zM500 762l1 1zM428 767zM402 768zM428 767v1zM446 769l1-1zM406 770zM444 770l1 1zM430 772l1 1zM416 774v1zM479 781l1-1zM470 352zM472 784zM470 785zM550 797l1 1zM295 807zM294 808q2-1 0 0M295 809zM295 809v1zM311 811zM564 812l1-1zM309 813l1-1zM342 813zM561 815zM542 815l-1 1zM493 821zM493 821l1 1zM416 825zM365 345q1-1 0 0M432 826zM561 827zM513 828zM307 832v1zM479 832l1 1zM399 834l1-1zM461 848zM348 849zM514 851zM504 852l1 1zM552 855q-1-1 0 0M504 855l1 1zM552 855l1 1zM543 859l-1 1zM416 861zM514 861zM415 861zM527 863zM474 865zM506 865l1 1zM342 867l1-1zM312 873l1-1zM339 876zM328 889zM433 891q-1-1 0 0M432 892q-1-1 0 0M431 892v1zM348 894l1-1zM488 321q1 0 0 0M427 897zM427 898q0-1 0 0M481 320q-1 1 0 0M364 904q-1-1 0 0M407 941q0-1 0 0M401 958q1 0 0 0M232 536l1-1zM234 539zM604 818q0-1 0 0M606 793q0 3 1 0zM608 720q0 1 0 0zM616 757zM587 840zM402 297q2 0 0 0M595 877l-5 9q7-3 6-10zM569 747zM605 672q0 1 0 0M601 677zM600 678zM600 678l-1 1zM613 888q-1 0 0 0M623 714h-2zM626 711l1 1zM632 716l-1 1zM587 491v2zM582 486l1-2zM587 488zM587 491zM458 909q1-1 0 0M506 311c-1 1 2 0 0 0M506 317q1-1 0 0M507 313q0 1 0 0M503 311q0 1 0 0M503 311q1-1 0 0M629 736q1 1 0 0M628 734zM632 733l1 1zM331 576l-2 1zM327 574zM327 575q0 2 0 0M536 603q2 0 0 0M326 601l1 1zM319 605zM525 576zM522 579l1-1zM520 586zM343 311q-1-1 0 0M596 480zM596 480l-1 1zM562 682l1 1zM585 631zM539 891l1 1zM567 559l1 1zM568 562zM332 578zM537 421q1-1 0 0M508 423l1 1zM499 337q-1-1 0 0M500 336q-1 0 0 0M572 532zM575 523q1 1 0 0M574 524q2 1 0 0M421 803zM373 830zM318 745zM438 643l1 1zM395 779zM364 705l-1 1zM367 706zh-2zM418 379q2-1 0 0" style="fill:#090b0b;fill-opacity:1"/></g><path d="M26 21h667v837H26z" style="fill:none;fill-rule:evenodd;stroke:#282828;stroke-width:1.5;stroke-linejoin:round;stroke-miterlimit:4;stroke-dasharray:none;stroke-opacity:1;fill-opacity:1" transform="translate(4 13)"/></g></svg>