<?xml version="1.0" encoding="UTF-8" standalone="no"?>
<svg
   width="973.7"
   height="1201"
   viewBox="0 0 730.3 900.7"
   version="1.1"
   id="svg27"
   sodipodi:docname="output_538.svg"
   xmlns:inkscape="http://www.inkscape.org/namespaces/inkscape"
   xmlns:sodipodi="http://sodipodi.sourceforge.net/DTD/sodipodi-0.dtd"
   xmlns="http://www.w3.org/2000/svg"
   xmlns:svg="http://www.w3.org/2000/svg"
   xmlns:inkpad="http://taptrix.com/inkpad/svg_extensions">
  <sodipodi:namedview
     id="namedview29"
     pagecolor="#ffffff"
     bordercolor="#666666"
     borderopacity="1.0"
     inkscape:pageshadow="2"
     inkscape:pageopacity="0.0"
     inkscape:pagecheckerboard="0"
     showgrid="false" />
  <defs
     id="defs5">
    <clipPath
       id="a"
       clipPathUnits="userSpaceOnUse">
      <path
         d="M64 155h730v901H64z"
         style="fill:none;fill-rule:evenodd;stroke:#000;stroke-width:1.5"
         id="path2" />
    </clipPath>
  </defs>
  <g
     style="display:inline"
     id="g9">
    <path
       d="M 98,83 C 274.33333,83 450.66667,83 627,83 627,330.33333 627,577.66667 627,825 450.66667,825 274.33333,825 98,825 98,577.66667 98,330.33333 98,83 Z"
       style="fill:#ffffff;fill-opacity:1;fill-rule:evenodd;stroke:#000000;stroke-width:1.5;stroke-linejoin:round"
       id="path7" />
  </g>
  <g
     style="display:inline"
     id="g25">
    <g
       inkpad:layerName="Untitled"
       fill="#393955"
       clip-path="url(#a)"
       style="fill:#090b0b;fill-opacity:1"
       transform="translate(-64 -155)"
       id="g21">
      <path
         d="M -4,-1 C -13.579509,347.5659 -3.4425897,696.27481 -8.5799945,1044.8867 320.15474,1101.5205 654.48647,1051.6541 985.22049,1078.2413 1054.2369,1062.7686 1100.0421,982.64722 1078.3598,915.32287 1065.5723,653.42528 1079.1568,391.17736 1071.7093,129.17712 1105.4858,62.510621 1032.8205,-25.643631 960.93306,-5.211865 639.35585,3.9883225 317.6277,-5.0339027 -4,-1 Z M 429,276 H 427 Z M 411,277 410,279 Z M 408,278 C 418.63243,264.42147 416.97453,290.21981 408,278 Z M 409,278 408,279 Z M 458,284 453.09293,280.08353 Z M 469,287 C 485.16378,247.86061 492.07615,315.48121 469,287 Z M 443,288 C 478.93806,348.93625 496.32034,418.75382 532.45957,479.58746 549.79207,564.06162 528.73845,652.25372 553.10189,735.7462 563.68261,844.37381 436.83075,937.53007 336.34918,894.92299 262.83572,836.06996 241.96207,721.85145 289.9081,640.80153 349.0738,605.45829 341.88749,503.15325 278.36187,476.42834 232.70192,378.77621 343.21619,262.83567 443,288 Z M 340,292 337.16258,293.1304 339.99921,292.00033 Z M 465,304 H 467 Z M 314,304 C 326.93918,316.24896 296.49144,309.94343 314,304 Z M 496,310 495.10829,311.62541 Z M 297,316 296,317 Z M 490,320 488.29311,320.33014 Z M 367,332 H 370.0543 370.05431 367.00117 Z M 522,368 519.1905,369.00249 Z M 530,372 526.94713,371.90669 Z M 531,376 532.57027,378.61973 V 378.61974 L 531.00078,376.00132 Z M 534,393 532.51469,392.82819 Z M 495,405 494.99759,406.82295 Z M 506,408 507.14944,410.82976 V 410.82977 L 506,408.00001 Z M 560,412 559,414 Z M 528,415 526.66179,416.67343 Z M 438,416 C 462.79326,450.81726 404.16619,409.477 438,416 Z M 525,418 522.04674,418.77909 Z M 532,428 C 527.45021,434.66749 527.1129,435.1618 532,428 Z M 573,453 C 613.52706,451.92526 563.73208,481.96532 573,453 Z M 244,458 C 279.35864,480.25714 213.32936,476.15133 244,458 Z M 590,461 590.8528,453.56204 Z M 591,472 C 583.25239,474.26513 582.67802,474.43306 591,472 Z M 600,476 C 604.0372,482.9898 604.33649,483.50798 600,476 Z M 565,483 C 566.36994,504.70905 556.65865,468.83879 565,483 Z M 500,486 498.85251,483.16945 499.99967,485.9992 Z M 608,492 603.37147,487.75798 Z M 267,497 269.82235,495.83248 H 269.82236 L 267.00001,497 Z M 571,507 576.9096,504.87995 Z M 627,509 627.18311,505.95119 V 505.95118 L 627,508.99999 Z M 606,512 604.58394,513.14144 Z M 568,515 566.94979,513.38681 Z M 564,542 558.069,544.05944 Z M 612,546 613.73695,544.61319 Z M 633,549 630.08762,548.07977 H 630.08761 L 632.99999,549 Z M 321,559 C 341.14104,540.06829 317.73369,570.6152 321.44984,562.19389 Z M 598,559 602.07134,565.28288 Z M 626,562 624.12903,561.76833 Z M 583,567 582,568 Z M 596,570 598.96555,570.73095 Z M 510,573 507.82944,573.46 Z M 635,581 630.21608,575.24113 Z M 608,584 C 650.23808,574.14636 591.41713,610.21482 608,584 Z M 273,585 H 275 Z M 532,589 C 571.6596,596.4884 512.5113,616.04973 532,589 Z M 620,593 C 658.59614,577.51535 607.51885,628.68501 620,593 Z M 508,598 507.86867,599.78179 Z M 581,600 C 587.30221,594.61883 589.88055,592.4173 581,600 Z M 635,602 C 630.80962,583.13574 645.37985,613.06566 635,602 Z M 510,606 509,607 Z M 509,610 V 612 Z M 611,615 C 652.41416,626.01371 580.94299,635.0124 611,615 Z M 636,615 C 648.78833,652.94138 607.6017,613.9265 636,615 Z M 511,617 C 507.06059,609.95464 506.76853,609.43231 511,617 Z M 581,617 579.97284,623.19378 Z M 573,628 C 581.05382,626.04752 584.34861,625.24877 573,628 Z M 595,628 C 633.14493,614.87013 589.55813,653.75236 595,628 Z M 628,641 625.93987,641.79531 Z M 561,655 559.23364,657.52429 Z M 642,658 C 633.93248,658.26683 633.33438,658.28661 642,658 Z M 578,667 C 603.85624,702.99801 540.17427,672.36463 578,667 Z M 559,668 C 552.86887,697.24197 556.1365,651.8954 559,668 Z M 642,670 C 683.38331,674.27765 615.01195,690.64243 642,670 Z M 602,675 C 623.09583,715.83577 573.50452,666.85796 602,675 Z M 551,684 551.0258,677.72168 Z M 625,690 C 662.08383,663.00871 621.22789,719.94644 625,690 Z M 597,691 C 637.31822,703.33418 568.28387,705.78848 597,691 Z M 646,701 646.00015,702.75876 Z M 580,707 C 621.0072,700.39764 559.78379,732.74228 580,707 Z M 634,713 C 676.93459,715.51427 607.81796,738.2379 634,713 Z M 589,722 C 634.19064,715.11964 571.64871,746.82554 589,722 Z M 576,739 574.02356,736.67139 V 736.67138 L 575.99945,738.99935 Z M 564,746 563,747 Z M 565,749 563,750 Z M 609,753 606.34265,752.03834 Z M 567,761 C 574.18908,756.87789 577.13028,755.19145 567,761 Z M 614,765 612.20497,765.1415 Z M 625,771 C 636.59335,761.94879 611.32671,768.06095 625,771 Z M 576,774 577.95653,775.08787 Z M 573,780 571.80354,781.60843 Z M 579,789 C 621.58132,783.7426 558.99307,813.69189 579,789 Z M 505,795 504.18645,797.94396 Z M 618,823 C 663.72758,829.03937 594.72861,842.07011 618,823 Z M 550,828 C 578.83279,798.85874 548.16039,860.40213 550,828 Z M 577,839 578.08583,838.18962 Z M 554,845 553,847 Z M 575,847 578.04276,847.17341 Z M 610,848 613.00517,848.54562 Z M 546,856 544.08555,854.8894 Z M 530,857 C 560.29744,884.3657 500.01219,870.94803 530,857 Z M 588,858 C 587.69492,898.88069 562.12664,847.54914 588,858 Z M 533,878 534.54591,880.63418 533.00001,878.00001 Z M 456,888 C 482.29126,919.02714 423.12022,896.40988 456,888 Z M 485,890 485.4169,882.52493 Z M 521,891 C 561.35042,882.78837 501.9136,920.19733 521,891 Z M 561,892 563.22946,889.91236 561.00001,891.99999 Z M 411,892 C 440.01592,861.37775 411.44607,925.29995 411,892 Z M 579,893 C 564.01612,883.13151 593.73134,891.58372 579,893 Z M 475,896 481.00288,894.16057 Z M 545,896 C 537.3784,898.65847 536.81338,898.85555 545,896 Z M 397,899 398.53254,899.75251 Z M 568,902 566,903 Z M 498,907 C 511.80311,945.73341 471.49529,903.32202 498,907 Z M 462,909 464.40818,910.8767 Z M 509,910 508.50183,913.01622 508.50097,913.02143 508.99914,910.00521 Z M 336,911 336.4425,907.97792 Z M 403,912 403.55542,910.80266 Z M 375,924 376.49815,925.52489 Z M 382,925 C 388.29016,919.94133 388.75648,919.56631 382,925 Z M 484,928 484.20405,931.04692 Z M 377,935 384.10238,932.63216 Z M 469,935 470.69025,935.76357 Z"
         style="fill:#090b0b;fill-opacity:1"
         id="path11" />
      <path
         d="M 449,628 C 383.91809,646.93803 342.93819,723.65953 363.38686,788.28272 427.96029,825.05579 510.63856,732.95253 467.14802,672.70426 461.00969,657.83879 455.36381,642.77292 449,628 Z M 448,637 H 447.5 Z M 455,649 454.90091,652.05269 V 652.0527 L 455,649.00001 Z M 357,704 355.58658,705.83064 Z M 359,705 360.05881,698.81154 Z M 380,706 378.66179,707.67343 Z M 376,706 377,707 Z M 331,718 329.58658,719.83064 Z M 328,718 C 323.46213,737.58425 344.26969,713.50702 328,718 Z M 297,734 300.01961,733.69895 Z M 317,734 C 357.80889,731.56145 293.39679,762.29802 317,734 Z M 476,755 474,756 Z M 477,758 475.58658,759.83064 Z M 470,761 468.77657,762.82465 Z M 472,764 470.58658,765.83064 Z M 396,779 397.33392,776.25253 Z M 458,781 C 498.09266,792.97793 427.52953,797.82283 458,781 Z M 404,784 C 441.92874,803.47938 369.38345,795.29783 404,784 Z M 439,786 H 438.5 Z M 436,787 437.79369,788.11965 Z M 406,797 C 435.24472,769.42561 413.20972,822.29355 406,797 Z M 363,797 361.4265,794.38221 362.99955,796.99926 Z M 346,800 348.56103,801.66429 H 348.56104 L 346.00088,800.00054 Z M 316,801 C 348.14304,773.82785 317.85442,838.91663 316,801 Z M 333,804 335.29535,803.61333 Z M 435,809 435.73412,811.96476 V 811.96477 L 435,809.00001 Z M 470,810 475.60832,807.17782 Z M 378,810 C 417.88806,794.30603 365.62966,838.35734 378,810 Z M 418,825 H 420 Z M 353,835 351.88367,833.61348 Z M 346,837 344.1616,837.01011 Z M 362,837 363,838 Z M 333,839 C 311.10621,837.95571 350.84374,832.58856 333,839 Z M 349,842 H 348.5 Z M 413,355 C 428.71859,393.56269 425.41829,323.71819 413,355 Z M 399,370 C 413.50774,333.13439 421.73633,393.31659 399,370 Z M 432,384 429.02421,384.58967 Z M 358,428 359.80941,428.09699 Z M 354,448 355.40274,450.69835 Z M 363,485 361.58658,486.83064 Z M 367,496 368,497 Z M 376,902 C 338.53892,884.15363 407.27103,892.66382 376,902 Z M 309,440 C 265.63642,432.35663 334.89863,410.95689 309,440 Z"
         style="fill:#090b0b;fill-opacity:1"
         id="path13" />
      <path
         d="M 456,836 C 470.68229,874.27024 426.86968,821.29711 456,836 Z M 550,797 C 569.43014,783.52469 547.43174,817.73491 550,797 Z M 498,711 C 538.15834,703.6552 477.84651,738.39932 498,711 Z M 493,713 491.66179,711.32657 Z M 491,674 C 529.17347,691.67668 458.12993,686.22781 491,674 Z M 533,855 C 490.90588,874.44206 542.53565,826.20089 533,855 Z M 312,378 C 307.152,418.61033 283.36211,358.9101 312,378 Z M 379,360 C 353.85265,393.10849 364.48618,327.57567 379,360 Z M 483,790 C 470.08986,749.23682 514.58658,806.32803 483,790 Z M 507,540 504.16243,538.87098 Z M 507,540 508,538 Z M 471,352 469.07477,354.15277 Z M 561,447 C 603.53335,450.98897 538.40447,476.80694 561,447 Z M 260,661 257.53568,659.15019 V 659.15019 L 259.99999,660.99999 Z M 310,864 C 271.17208,880.78409 323.10789,830.84499 310,864 Z"
         style="fill:#090b0b;fill-opacity:1"
         id="path15" />
      <path
         d="M 482,847 C 503.19354,883.12983 448.84979,837.32104 482,847 Z M 369,769 C 344.88992,736.09175 401.4045,776.02057 369,769 Z M 519,464 C 547.65113,493.84524 487.09011,475.71958 519,464 Z M 478,871 C 510.11128,842.10787 480.38647,909.85981 478,871 Z M 378,506 C 353.61779,541.13 410.33711,499.19868 378,506 Z M 383,515 H 382.5 Z M 402,767 C 392.56339,727.15861 433.99673,784.45914 402,767 Z M 334,348 C 352.3188,386.15113 297.19969,344.86016 334,348 Z M 370,378 C 366.69603,394.08309 364.74536,365.8615 370,378 Z M 439,357 C 405.9374,356.38679 457.44551,349.15813 439,357 Z M 456,546 454.52597,547.0708 Z M 456,546 V 547 Z M 493,875 C 480.40979,887.69326 486.94352,858.60538 493,875 Z M 502,607 C 460.60314,605.27641 527.97913,583.32599 502,607 Z M 469,665 C 476.53364,640.54232 449.56442,673.91836 469,665 Z M 462,484 463.6456,490.05888 Z M 377,929 378.96531,928.08309 Z M 471,356 471.06338,358.18887 Z M 364,904 357.73149,904.35173 Z M 359,915 H 358.5 Z M 319,552 C 315.65905,544.4162 314.29227,541.31367 319,552 Z M 375,867 372.20095,868.22232 374.99921,867.00035 Z M 415,861 C 446.82082,890.02804 379.37235,863.84121 415,861 Z M 329,782 329.34882,783.91859 Z M 315,881 313.83392,879.14243 Z M 282,693 C 277.84034,686.08237 277.53197,685.56955 282,693 Z M 506,388 513.43682,388.86264 Z M 524,541 C 516.34867,544.18322 513.21849,545.48548 524,541 Z M 505,780 503.40155,777.39737 504.99999,779.99998 Z M 468,844 465.66855,845.9731 467.99934,844.00055 Z M 539,815 538.09327,817.91661 V 817.91662 L 539,815.00001 Z M 364,396 365.19513,398.81077 V 398.81078 L 364,396.00001 Z M 422,880 419.21015,880.65506 Z M 355,863 360.9551,864.98867 Z M 568,590 569.41693,592.43423 Z M 457,384 455.23317,384.49696 Z M 473,872 C 464.93568,870.09142 461.63656,869.31061 473,872 Z M 407,755 408.78614,757.44221 Z M 252,444 C 258.65257,439.42839 259.14575,439.08948 252,444 Z M 324,906 325.39116,907.72712 Z M 369,769 C 369.10165,760.71356 369.14323,757.32351 369,769 Z M 471,594 469.92762,592.3015 471,595 M 444,770 444.29892,766.96036 Z M 336,897 338.65675,898.50679 336.00001,897.00001 Z M 509,743 507.03581,741.99572 Z M 456,368 454.81444,370.81054 Z M 501,682 502.31264,682.67211 Z M 328,889 326.4272,888.18079 Z M 459,499 C 456.38135,478.2802 446.03862,510.90775 459,499 Z M 337,407 C 345.20928,402.66906 350.96008,399.63514 337,407 Z M 512,840 512.85078,842.19414 Z M 517,776 515.83323,773.17734 516.99967,775.99921 Z M 485,549 486.30653,548.70662 Z M 275,656 272.73007,653.95644 274.99999,655.99999 Z M 513,564 505.53373,564.55259 Z M 533,802 536.3951,796.71877 Z M 512,756 C 516.51602,762.69043 516.85081,763.18642 512,756 Z M 434,757 433.92274,750.72209 Z M 379,384 C 372.60396,378.73062 369.98731,376.5749 379,384 Z M 307,832 306.47421,835.01719 V 835.0172 L 307,832.00001 Z M 493,820 495.82684,821.22515 H 495.82685 L 493.00001,820 Z M 501,641 500.46009,643.08541 Z M 496,758 C 495.4024,749.95022 495.35809,749.35344 496,758 Z M 496,758 497,759 Z M 463,742 C 451.4094,730.25354 474.44337,733.69646 463,742 Z M 388,369 388.13081,365.9485 Z M 479,722 477.85672,723.39695 Z M 376,903 374.00287,902.90691 Z M 352,510 349.9762,511.43632 Z M 336,443 336.50439,445.29932 Z M 530,521 526.97227,521.40198 H 526.97226 L 529.99999,521 Z M 494,876 496.51384,877.73474 Z M 417,890 C 412.03163,896.36173 411.66331,896.83334 417,890 Z M 320,928 C 320.34637,919.93549 320.37205,919.33765 320,928 Z M 519,829 513.06268,833.56057 Z M 472,407 470.61794,413.12437 Z M 330,914 C 355.79408,902.96705 315.94426,930.82931 330,914 Z M 307,819 C 309.24944,811.24781 309.41619,810.67313 307,819 Z M 519,732 C 518.22171,723.42913 518.3975,725.36504 519,732 Z M 413,529 412.59704,532.0276 V 532.02761 L 413,529.00001 Z M 462,745 C 453.92934,745.14353 453.33101,745.15417 462,745 Z M 417,355 419.86155,356.06785 H 419.86156 L 417.00001,355 Z M 367,919 367.11199,917.06916 Z M 509,592 509.63328,589.18147 Z M 434,325 431.59741,324.63181 Z M 454,577 453.90301,578.80941 Z M 426,773 427.71651,774.68468 Z M 501,560 501.96548,562.89643 502,563 M 502,563 501.03452,560.10357 501,560 M 364,901 C 357.96143,895.64352 357.51377,895.24642 364,901 Z M 279,583 281.86456,584.05975 H 281.86457 L 279.00001,583 Z M 432,766 428.94713,765.90667 431.99999,766 Z M 463,445 C 469.03849,450.35659 469.48613,450.75367 463,445 Z M 384,857 386.35036,858.95053 386.35037,858.95054 384.00001,857.00001 Z M 482,847 485.03377,847.35351 H 485.03378 L 482.00001,847 Z"
         style="fill:#090b0b;fill-opacity:1"
         id="path17" />
      <path
         d="M 462,748 C 429.96147,732.1072 477.93874,748.44809 462,748 Z M 536,489 532.93432,488.92194 532.92605,488.92173 535.99173,488.99979 Z M 514,851 513.90667,854.05287 Z M 570,501 572.47797,502.78562 Z M 369,501 C 375.72108,505.47027 376.21934,505.80167 369,501 Z M 352,510 350,508 Z M 452,631 451.03412,628.10244 Z M 435,359 433.99282,360.8253 Z M 364,901 363.18025,902.53452 Z M 422,554 424.89401,554.00756 Z M 382,883 383,885 Z M 339,876 C 351.80817,889.8718 325.1282,863.19183 339,876 Z M 286,584 C 286.78347,564.32916 286.78347,603.67084 286,584 Z M 294,584 293,585 M 382,519 379.10243,518.03415 Z M 346,387 C 345.49544,399.71752 345.49544,374.28248 346,387 Z M 357,657 356.11239,659.01526 Z M 263,659 261,660 Z M 383,671 383.00756,668.10599 Z M 445,829 C 441.58143,836.89801 442.35357,835.11413 445,829 Z M 328,692 C 328.78347,672.32916 328.78347,711.67084 328,692 Z M 445,827 442.20087,828.22214 H 442.20086 L 444.99999,827 Z M 498,705 498.88761,702.98474 Z M 484,825 486.60941,823.41264 484.00001,825 Z M 393,418 389.94645,418.06755 392.99999,418 Z M 463,445 C 462.21653,464.67084 462.21653,425.32916 463,445 Z M 294,807 296.60941,805.41264 294.00001,807 Z M 426,773 428.89757,773.96585 Z M 347,813 343.94645,813.06755 346.99999,813 Z M 341,816 341.06755,819.05355 Z M 307,819 303.94645,819.06755 306.99999,819 Z M 543,720 543.06755,723.05355 Z M 303,711 303.06755,714.05355 Z M 356,689 H 357 Z M 491,674 493,675 Z M 462,674 462.06755,677.05355 Z M 398,835 396.34044,832.4359 Z M 395,836 397,837 Z M 521,668 521.06755,671.05355 Z M 499,841 495.94645,841.06755 498.99999,841 Z M 452,631 V 633 Z M 410,336 410.06755,339.05355 410,336.00001 Z M 502,608 C 509.04536,604.06059 509.56769,603.76853 502,608 Z M 518,860 517.93245,856.94645 Z M 388,369 389,367 Z M 274,594 V 595 Z M 472,872 473,870 Z M 344,875 345.67343,876.33821 Z M 484,329 486,330 Z M 286,584 284,583 Z M 276,583 V 584 Z M 296,584 297,582 Z M 450,574 H 448 Z M 421,373 H 422 Z M 501,560 499,559 Z M 387,561 390.05355,560.93245 387.00001,561 Z M 347,895 350.05355,894.93245 347.00001,895 Z M 555,544 556.67343,545.33821 Z M 335,533 H 337 Z M 536,531 H 537 Z M 475,531 475.06755,534.05355 Z M 384,382 385,380 Z M 332,940 335.05355,939.93245 332.00001,940 Z M 374,500 370.94645,500.06755 373.99999,500 Z M 514,452 H 512 Z M 306,440 304.34044,437.4359 305.99953,439.99928 Z M 498,412 H 496 Z M 327,417 H 328 Z M 350,420 H 351 Z M 512,412 513,413 Z M 498,412 499,413 Z M 342,412 343,413 Z M 252,444 V 445 Z M 514,452 515,453 Z M 328,456 H 329 Z M 373,503 374,504 Z M 375,504 H 376 Z M 379,384 V 385 Z M 356,514 V 515 Z M 530,521 529,522 Z M 398,526 399,527 Z M 512,379 513,380 Z M 510,379 511,380 Z M 335,533 V 534 Z M 335,536 336,535 Z M 335,537 336,538 Z M 453,550 454,549 Z M 455,551 456,550 Z M 506,553 V 554 Z M 426,554 427,555 Z M 419,372 420,373 Z M 583,571 584,572 Z M 451,576 V 577 Z M 275,584 V 583 Z M 271,590 272,591 Z M 487,590 488,591 Z M 367,607 368,608 Z M 359,613 360,612 Z M 367,614 368,613 Z M 453,634 454,635 Z M 421,364 H 422 Z M 419,363 420,364 Z M 433,646 V 647 Z M 420,362 H 421 Z M 466,650 467,649 Z M 441,651 442,652 Z M 263,659 264,660 Z M 372,660 373,661 Z M 488,680 489,679 Z M 259,680 V 681 Z M 501,682 502,683 Z M 345,683 346,684 Z M 417,683 418,684 Z M 420,683 421,684 Z M 536,685 535,686 Z M 534,687 535,688 Z M 308,688 309,689 Z M 306,689 307,690 Z M 289,700 290,699 Z M 291,708 292,709 Z M 416,355 H 417 Z M 543,717 544,716 Z M 551,737 552,736 Z M 439,749 H 438 Z M 510,749 511,750 Z M 438,750 437,751 Z M 439,750 440,751 Z M 502,762 503,761 Z M 500,762 501,763 Z M 428,767 V 768 Z M 446,769 447,768 Z M 444,770 445,771 Z M 430,772 431,773 Z M 416,774 V 775 Z M 479,781 480,780 Z M 550,797 551,798 Z M 295,809 V 810 Z M 564,812 565,811 Z M 309,813 310,812 Z M 542,815 541,816 Z M 493,821 494,822 Z M 307,832 V 833 Z M 479,832 480,833 Z M 399,834 400,833 Z M 504,852 505,853 Z M 551,854 552,855 Z M 504,855 505,856 Z M 552,855 553,856 Z M 543,859 542,860 Z M 506,865 507,866 Z M 342,867 343,866 Z M 312,873 313,872 Z M 433,890 432,891 Z M 431,892 V 893 Z M 348,894 349,893 Z M 481,320 V 321 Z M 363,903 364,904 Z M 407,940 V 941 Z M 232,536 233,535 Z M 601,822 C 598.62857,814.05945 597.65842,810.81098 601,822 Z M 607,787 607.2882,788.34695 Z M 608,724 C 604.12446,716.91928 603.83716,716.39437 608,724 Z M 598,874 C 634.58991,895.3075 563.77471,884.92905 598,874 Z M 602,676 602.25892,679.07044 V 679.07045 L 602,676.00001 Z M 600,678 599,679 Z M 623,714 H 621 Z M 626,711 627,712 Z M 632,716 631,717 Z M 587,491 V 493 Z M 582,486 583,484 Z M 508,311 507.6976,313.04104 Z M 628,737 628.06755,740.05355 Z M 632,733 633,734 Z M 331,576 329,577 Z M 326,601 327,602 Z M 522,579 523,578 Z M 527,391 528,392 Z M 596,480 595,481 Z M 562,682 563,683 Z M 539,891 540,892 Z M 567,559 568,560 Z M 538,420 H 537 Z M 508,423 509,424 Z M 499,336 H 498 Z M 499,337 V 338 Z M 438,643 439,644 Z M 364,705 363,706 Z M 367,706 H 365 Z M 418,378 423.67557,382.88246 Z"
         style="fill:#090b0b;fill-opacity:1"
         id="path19" />
    </g>
    <path
       d="M 30,34 C 252.33333,34 474.66667,34 697,34 697,313 697,592 697,871 474.66667,871 252.33333,871 30,871 30,592 30,313 30,34 Z"
       style="fill:none;fill-opacity:1;fill-rule:evenodd;stroke:#282828;stroke-width:1.5;stroke-linejoin:round;stroke-miterlimit:4;stroke-dasharray:none;stroke-opacity:1"
       id="path23" />
  </g>
</svg>
