<?xml version="1.0" encoding="UTF-8" standalone="no"?>
<svg
   width="973.7"
   height="1201"
   viewBox="0 0 730.3 900.7"
   version="1.1"
   id="svg27"
   sodipodi:docname="output_483.svg"
   xmlns:inkscape="http://www.inkscape.org/namespaces/inkscape"
   xmlns:sodipodi="http://sodipodi.sourceforge.net/DTD/sodipodi-0.dtd"
   xmlns="http://www.w3.org/2000/svg"
   xmlns:svg="http://www.w3.org/2000/svg"
   xmlns:inkpad="http://taptrix.com/inkpad/svg_extensions">
  <sodipodi:namedview
     id="namedview29"
     pagecolor="#ffffff"
     bordercolor="#666666"
     borderopacity="1.0"
     inkscape:pageshadow="2"
     inkscape:pageopacity="0.0"
     inkscape:pagecheckerboard="0"
     showgrid="false" />
  <defs
     id="defs5">
    <clipPath
       id="a"
       clipPathUnits="userSpaceOnUse">
      <path
         d="M64 155h730v901H64z"
         style="fill:none;fill-rule:evenodd;stroke:#000;stroke-width:1.5"
         id="path2" />
    </clipPath>
  </defs>
  <g
     style="display:inline"
     id="g9">
    <path
       d="M 98,83 C 274.33333,83 450.66667,83 627,83 627,330.33333 627,577.66667 627,825 450.66667,825 274.33333,825 98,825 98,577.66667 98,330.33333 98,83 Z"
       style="fill:#ffffff;fill-opacity:1;fill-rule:evenodd;stroke:#000000;stroke-width:1.5;stroke-linejoin:round"
       id="path7" />
  </g>
  <g
     style="display:inline"
     id="g25">
    <g
       inkpad:layerName="Untitled"
       fill="#393955"
       clip-path="url(#a)"
       style="fill:#090b0b;fill-opacity:1"
       transform="translate(-64 -155)"
       id="g21">
      <path
         d="M -4,-1 C -13.584854,347.56584 -3.4393255,696.27483 -8.5799945,1044.8867 320.07048,1102.6535 654.51108,1050.9652 985.22049,1078.2413 1054.3032,1062.8832 1100.1741,982.64615 1078.3598,915.32287 1065.5503,653.42573 1079.1678,391.17724 1071.7093,129.17712 1106.8339,62.53905 1033.0497,-26.971773 960.93306,-5.211865 639.35585,3.9883225 317.6277,-5.0339027 -4,-1 Z M 429,276 H 427 Z M 411,277 410,279 Z M 408,278 C 383.03709,290.45952 420.40189,261.46089 408,278 Z M 409,278 408,279 Z M 458,284 C 451.69002,278.96383 451.22222,278.59047 458,284 Z M 469,287 C 466.27543,326.99253 446.41623,273.4858 469,287 Z M 443,288 C 479.02714,348.89261 496.22803,418.79924 532.45957,479.58746 550.42799,564.00104 527.76032,652.38743 553.10189,735.7462 564.55043,844.63728 436.82241,938.43697 336.34918,894.92299 262.78466,836.10794 241.90096,721.834 289.9081,640.80153 349.84588,605.91261 342.58847,502.59546 278.36187,476.42834 232.83432,378.80983 343.1625,262.71644 443,288 Z M 340,292 337.16258,293.1304 339.99921,292.00033 Z M 465,304 H 467 Z M 314,304 C 316.9733,284.24632 319.73508,318.04175 314,304 Z M 496,310 495.10829,311.62541 Z M 297,316 296,317 Z M 490,320 488.29311,320.33014 Z M 367,332 H 370.0543 370.05431 367.00117 Z M 522,368 519.1905,369.00249 Z M 530,372 526.94713,371.90669 Z M 531,376 532.57027,378.61973 V 378.61974 L 531.00078,376.00132 Z M 534,393 532.51469,392.82819 Z M 495,405 494.99759,406.82295 Z M 506,408 507.14944,410.82976 V 410.82977 L 506,408.00001 Z M 560,412 559,414 Z M 528,415 526.66179,416.67343 Z M 438,416 C 399.33015,401.69926 463.82924,392.44966 438,416 Z M 525,418 522.04674,418.77909 Z M 532,428 528.46055,433.18691 Z M 573,453 C 530.10239,463.02331 589.43433,426.85301 573,453 Z M 244,458 C 205.60772,446.47314 262.95597,439.99841 244,458 Z M 590,461 C 590.94408,452.76551 591.33033,449.39656 590,461 Z M 591,472 584.97282,473.7621 Z M 600,476 603.14069,481.43764 Z M 565,483 C 563.20565,464.44686 580.48346,479.19806 565,483 Z M 500,486 498.85251,483.16945 499.99967,485.9992 Z M 608,492 C 602.04821,486.54522 601.60693,486.14079 608,492 Z M 267,497 269.82235,495.83248 H 269.82236 L 267.00001,497 Z M 571,507 C 578.59913,504.27385 579.16252,504.07174 571,507 Z M 627,509 627.18311,505.95119 V 505.95118 L 627,508.99999 Z M 606,512 C 634.64009,509.52186 605.32981,525.055 606,512 Z M 568,515 566.94979,513.38681 Z M 564,542 C 556.37335,544.6482 555.80793,544.84454 564,542 Z M 612,546 613.73695,544.61319 Z M 633,549 630.08762,548.07977 H 630.08761 L 632.99999,549 Z M 321,559 C 297.97388,569.42529 331.04479,546.94813 321,559 Z M 598,559 C 602.50736,565.95578 604.35137,568.80146 598,559 Z M 626,562 624.12903,561.76833 Z M 583,567 582,568 Z M 596,570 598.96555,570.73095 Z M 510,573 507.82944,573.46 Z M 635,581 C 629.70374,574.62436 627.53699,572.01602 635,581 Z M 608,584 C 578.98739,616.84989 596.55968,547.00243 608,584 Z M 273,585 H 275 Z M 532,589 C 493.47774,590.35627 545.74498,566.6724 532,589 Z M 620,593 C 595.19805,622.608 605.85518,567.81058 620,593 Z M 508,598 507.86867,599.78179 Z M 581,600 586.69457,595.13772 Z M 635,602 C 623.0008,633.84715 631.29273,589.21364 635,602 Z M 510,606 509,607 Z M 509,610 V 612 Z M 611,615 C 572.5203,624.00889 614.73401,585.54979 611,615 Z M 636,615 C 611.30151,581.19217 666.36333,621.14462 636,615 Z M 511,617 507.93536,611.51915 Z M 581,617 C 579.67926,624.96457 579.58134,625.55505 581,617 Z M 573,628 580.2772,626.23583 Z M 595,628 C 563.97782,656.51736 596.49422,592.61652 595,628 Z M 628,641 625.93987,641.79531 Z M 561,655 559.23364,657.52429 Z M 642,658 635.72395,658.20754 Z M 578,667 C 548.17465,640.99731 602.53044,658.64577 578,667 Z M 559,668 C 557.01541,646.24313 573.28979,664.53034 559,668 Z M 642,670 C 606.17974,688.44485 641.5451,636.29383 642,670 Z M 602,675 C 566.36459,654.21034 636.40982,666.523 602,675 Z M 551,684 C 551.03317,675.92675 551.03563,675.32818 551,684 Z M 625,690 C 611.67912,731.42826 602.33383,657.68457 625,690 Z M 597,691 C 557.57021,700.65868 603.8928,658.02969 597,691 Z M 646,701 646.00015,702.75876 Z M 580,707 C 549.35525,736.29023 571.46271,671.14265 580,707 Z M 634,713 C 598.52843,730.51943 631.17701,683.28393 634,713 Z M 589,722 C 557.22058,751.11771 584.0857,684.40115 589,722 Z M 576,739 574.02356,736.67139 V 736.67138 L 575.99945,738.99935 Z M 564,746 563,747 Z M 565,749 563,750 Z M 609,753 606.34265,752.03834 Z M 567,761 573.4959,757.27533 Z M 614,765 612.20497,765.1415 Z M 625,771 C 606.58952,794.23749 639.7414,764.71655 628.73254,771.24331 Z M 576,774 577.95653,775.08787 Z M 573,780 571.80354,781.60843 Z M 579,789 C 546.58207,818.34783 572.82299,750.54111 579,789 Z M 505,795 504.18645,797.94396 Z M 618,823 C 581.33789,842.55918 625.7916,786.73828 618,823 Z M 550,828 C 542.12316,871.09402 520.74438,802.40833 550,828 Z M 577,839 578.08583,838.18962 Z M 554,845 553,847 Z M 575,847 578.04276,847.17341 Z M 610,848 613.00517,848.54562 Z M 546,856 544.08555,854.8894 Z M 530,857 C 491.65944,830.28435 559.72411,850.64781 530,857 Z M 588,858 C 575.49724,818.42767 615.93408,874.10008 588,858 Z M 533,878 534.54591,880.63418 533.00001,878.00001 Z M 456,888 C 424.0001,865.75778 480.46076,878.1378 456,888 Z M 485,890 C 485.46147,881.72435 485.65026,878.33871 485,890 Z M 521,891 C 491.45645,917.3363 510.36285,862.30414 521,891 Z M 561,892 563.22946,889.91236 561.00001,891.99999 Z M 411,892 C 403.41811,932.30395 383.43135,872.01802 411,892 Z M 579,893 C 603.79994,918.68843 576.24585,876.48121 579,893 Z M 475,896 C 482.71908,893.63474 483.29137,893.45938 475,896 Z M 545,896 539.07084,898.06808 Z M 397,899 398.53254,899.75251 Z M 568,902 566,903 Z M 498,907 C 472.26249,874.9736 531.96157,911.70579 498,907 Z M 462,909 464.40818,910.8767 Z M 509,910 508.50183,913.01622 508.50097,913.02143 508.99914,910.00521 Z M 336,911 336.4425,907.97792 Z M 403,912 403.55542,910.80266 Z M 375,924 376.49815,925.52489 Z M 382,925 386.89333,921.06463 Z M 484,928 484.20405,931.04692 Z M 377,935 C 384.863,932.3786 388.07992,931.30612 377,935 Z M 469,935 470.69025,935.76357 Z"
         style="fill:#090b0b;fill-opacity:1"
         id="path11" />
      <path
         d="M 449,628 C 383.86614,646.85745 342.84226,723.66115 363.38686,788.28272 425.49732,826.98911 510.116,740.14733 469.81233,679.06128 462.60835,662.14981 456.27276,644.88293 449,628 Z M 448,637 H 447.5 Z M 455,649 454.90091,652.05269 V 652.0527 L 455,649.00001 Z M 357,704 355.58658,705.83064 Z M 359,705 C 360.36147,697.04229 360.46241,696.45232 359,705 Z M 380,706 378.66179,707.67343 Z M 376,706 377,707 Z M 331,718 329.58658,719.83064 Z M 328,718 C 317.63243,698.86946 330.0393,737.98196 328,718 Z M 297,734 300.01961,733.69895 Z M 317,734 C 278.23367,750.24559 316.72434,705.03546 317,734 Z M 476,755 474,756 Z M 477,758 475.58658,759.83064 Z M 470,761 468.77657,762.82465 Z M 472,764 470.58658,765.83064 Z M 396,779 397.33392,776.25253 Z M 458,781 C 419.07814,790.40427 462.22284,750.36297 458,781 Z M 404,784 C 363.50365,785.86539 413.67774,754.45554 404,784 Z M 439,786 H 438.5 Z M 436,787 437.79369,788.11965 Z M 406,797 C 386.87301,835.33072 394.64596,763.40762 406,797 Z M 363,797 361.4265,794.38221 362.99955,796.99926 Z M 346,800 348.56103,801.66429 H 348.56104 L 346.00088,800.00054 Z M 316,801 C 296.7401,838.42119 297.08662,780.16726 316,801 Z M 333,804 335.29535,803.61333 Z M 435,809 435.73412,811.96476 V 811.96477 L 435,809.00001 Z M 470,810 C 477.21171,806.37094 477.74635,806.1019 470,810 Z M 378,810 C 352.84449,845.15179 362.74837,775.49329 378,810 Z M 418,825 H 420 Z M 353,835 351.88367,833.61348 Z M 346,837 344.1616,837.01011 Z M 362,837 363,838 Z M 333,839 C 354.72792,833.29612 321.99789,856.20476 333,839 Z M 349,842 H 348.5 Z M 413,355 C 420.52457,314.97134 380.56195,363.05756 413,355 Z M 399,370 C 393.62863,409.81444 378.97855,352.03413 399,370 Z M 432,384 429.02421,384.58967 Z M 358,428 359.80941,428.09699 Z M 354,448 355.40274,450.69835 Z M 363,485 361.58658,486.83064 Z M 367,496 368,497 Z M 376,902 C 417.2623,894.54791 364.92739,935.92651 376,902 Z M 309,440 C 350.02167,434.80715 300.35611,465.37772 309,440 Z"
         style="fill:#090b0b;fill-opacity:1"
         id="path13" />
      <path
         d="M 456,836 C 421.30858,812.58318 487.48214,819.1559 456,836 Z M 550,797 C 535.71099,810.22063 545.69842,778.43129 550,797 Z M 498,711 C 468.89038,738.32487 487.92286,679.56661 498,711 Z M 493,713 491.66179,711.32657 Z M 491,674 C 450.92992,677.60272 499.55427,644.31708 491,674 Z M 533,855 C 556.54933,818.83367 547.72424,889.97935 533,855 Z M 312,378 C 307.33736,338.9716 335.68991,389.45219 312,378 Z M 379,360 C 395.29267,323.56672 393.73014,381.99893 379,360 Z M 483,790 C 513.48572,815.55206 454.18838,804.37834 483,790 Z M 507,540 504.16243,538.87098 Z M 507,540 508,538 Z M 471,352 469.07477,354.15277 Z M 561,447 C 521.44407,454.29514 569.1398,421.88713 561,447 Z M 260,661 257.53525,659.14988 H 257.53524 L 259.99999,661 Z M 310,864 C 336.84811,832.35622 324.59858,890.78918 310,864 Z"
         style="fill:#090b0b;fill-opacity:1"
         id="path15" />
      <path
         d="M 482,847 C 446.08991,826.27754 507.88099,826.98588 482,847 Z M 369,769 C 408.34846,782.34385 342.60669,792.90972 369,769 Z M 519,464 C 487.46551,440.90521 543.89998,455.19325 519,464 Z M 478,871 C 458.54327,906.46534 461.34663,849.28987 478,871 Z M 378,506 C 417.26457,488.35929 350.31587,482.6909 378,506 Z M 383,515 H 382.5 Z M 402,767 C 424.18917,799.8031 374.94203,772.69599 402,767 Z M 334,348 C 305.32411,320.30016 358.75373,339.43513 334,348 Z M 370,378 C 372.44834,360.23656 379.12226,391.02382 370,378 Z M 439,357 C 454.51313,360.90356 435.10701,370.42151 439,357 Z M 456,546 454.52597,547.0708 Z M 456,546 V 547 Z M 493,875 C 508.85175,878.78615 480.53771,880.44455 493,875 Z M 502,607 C 536.67089,587.04701 506.72503,636.87507 502,607 Z M 469,665 C 481.98649,685.54268 465.10447,647.69777 469,665 Z M 462,484 C 464.11605,491.79109 464.27293,492.3687 462,484 Z M 377,929 378.96531,928.08309 Z M 471,356 471.06338,358.18887 Z M 364,904 C 355.93935,904.45221 355.34173,904.48573 364,904 Z M 359,915 H 358.5 Z M 319,552 315.9812,545.14749 Z M 375,867 372.20095,868.22232 374.99921,867.00035 Z M 415,861 C 375.27077,848.45782 433.74235,836.78517 415,861 Z M 329,782 329.34882,783.91859 Z M 315,881 313.83392,879.14243 Z M 282,693 278.76406,687.61851 Z M 506,388 C 514.23334,388.95501 517.60159,389.3457 506,388 Z M 524,541 517.08647,543.8763 Z M 505,780 503.40155,777.39737 504.99999,779.99998 Z M 468,844 465.66855,845.9731 467.99934,844.00055 Z M 539,815 538.09327,817.91661 V 817.91662 L 539,815.00001 Z M 364,396 365.19513,398.81077 V 398.81078 L 364,396.00001 Z M 422,880 419.21015,880.65506 Z M 355,863 C 362.65763,865.5572 363.22538,865.74679 355,863 Z M 568,590 569.41693,592.43423 Z M 457,384 455.23317,384.49696 Z M 473,872 465.7133,870.27548 Z M 407,755 408.78614,757.44221 Z M 252,444 257.17529,440.44357 Z M 324,906 325.39116,907.72712 Z M 369,769 369.09183,761.51258 Z M 471,594 469.92762,592.3015 471,595 M 444,770 444.29892,766.96036 Z M 336,897 338.65675,898.50679 336.00001,897.00001 Z M 509,743 507.03581,741.99572 Z M 456,368 454.81444,370.81054 Z M 501,682 502.31264,682.67211 Z M 328,889 326.4272,888.18079 Z M 459,499 C 480.79299,509.94339 449.42164,486.73557 459,499 Z M 337,407 345.31497,402.61326 Z M 512,840 512.85078,842.19414 Z M 517,776 515.83323,773.17734 516.99967,775.99921 Z M 485,549 486.30653,548.70662 Z M 275,656 272.73007,653.95644 274.99999,655.99999 Z M 513,564 C 504.73412,564.61166 501.35243,564.8619 513,564 Z M 533,802 C 537.36571,795.20888 537.68938,794.7054 533,802 Z M 512,756 515.51317,761.20476 Z M 434,757 C 433.90067,748.92728 433.89331,748.32878 434,757 Z M 379,384 373.2207,379.23872 Z M 307,832 306.47421,835.01719 V 835.0172 L 307,832.00001 Z M 493,820 495.82684,821.22515 H 495.82685 L 493.00001,820 Z M 501,641 500.46009,643.08541 Z M 496,758 495.53518,751.73775 Z M 496,758 497,759 Z M 463,742 C 474.86708,769.00051 451.29956,733.26119 459.44985,741.28284 Z M 388,369 388.13081,365.9485 Z M 479,722 477.85672,723.39695 Z M 376,903 374.00287,902.90691 Z M 352,510 349.9762,511.43632 Z M 336,443 336.50439,445.29932 Z M 530,521 526.97227,521.40198 H 526.97226 L 529.99999,521 Z M 494,876 496.51384,877.73474 Z M 417,890 413.13489,894.94901 Z M 320,928 320.26941,921.7263 Z M 519,829 C 512.42674,834.04905 509.7377,836.11455 519,829 Z M 472,407 C 470.22278,414.87528 470.09101,415.45916 472,407 Z M 330,914 C 295.9058,925.55789 343.65101,900.78365 330,914 Z M 307,819 308.74989,812.96927 Z M 519,732 518.4822,726.29679 Z M 413,529 412.59704,532.0276 V 532.02761 L 413,529.00001 Z M 462,745 455.72152,745.11164 Z M 417,355 419.86155,356.06785 H 419.86156 L 417.00001,355 Z M 367,919 367.11199,917.06916 Z M 509,592 509.63328,589.18147 Z M 434,325 431.59741,324.63181 Z M 454,577 453.90301,578.80941 Z M 426,773 427.71651,774.68468 Z M 501,560 501.96548,562.89643 502,563 M 502,563 501.03452,560.10357 501,560 M 364,901 359.30237,896.83298 Z M 279,583 281.86456,584.05975 H 281.86457 L 279.00001,583 Z M 432,766 428.94713,765.90667 431.99999,766 Z M 463,445 467.69757,449.16709 Z M 384,857 386.35036,858.95053 386.35037,858.95054 384.00001,857.00001 Z M 482,847 485.03377,847.35351 H 485.03378 L 482.00001,847 Z"
         style="fill:#090b0b;fill-opacity:1"
         id="path17" />
      <path
         d="M 462,748 C 478.71705,761.94975 447.24427,744.83348 462,748 Z M 536,489 532.93432,488.92194 532.92605,488.92173 535.99173,488.99979 Z M 514,851 513.90667,854.05287 Z M 570,501 572.47797,502.78562 Z M 369,501 374.2286,504.47757 Z M 352,510 350,508 Z M 452,631 451.03412,628.10244 Z M 435,359 433.99282,360.8253 Z M 364,901 363.18025,902.53452 Z M 422,554 424.89401,554.00756 Z M 382,883 383,885 Z M 339,876 C 351.4361,889.5306 325.4694,863.5639 339,876 Z M 286,584 C 286.80611,564.8539 286.80611,603.1461 286,584 Z M 294,584 293,585 M 382,519 379.10243,518.03415 Z M 346,387 C 345.48097,399.38101 345.48097,374.61899 346,387 Z M 357,657 356.11239,659.01526 Z M 263,659 261,660 Z M 383,671 383.00756,668.10599 Z M 445,829 442.72522,834.25549 Z M 328,692 C 328.80611,672.8539 328.80611,711.1461 328,692 Z M 445,827 442.20087,828.22214 H 442.20086 L 444.99999,827 Z M 498,705 498.88761,702.98474 Z M 484,825 486.60941,823.41264 484.00001,825 Z M 393,418 389.94645,418.06755 392.99999,418 Z M 463,445 C 462.19389,464.1461 462.19389,425.8539 463,445 Z M 294,807 296.60941,805.41264 294.00001,807 Z M 426,773 428.89757,773.96585 Z M 347,813 343.94645,813.06755 346.99999,813 Z M 341,816 341.06755,819.05355 Z M 307,819 303.94645,819.06755 306.99999,819 Z M 543,720 543.06755,723.05355 Z M 303,711 303.06755,714.05355 Z M 356,689 H 357 Z M 491,674 493,675 Z M 462,674 462.06755,677.05355 Z M 398,835 396.34044,832.4359 Z M 395,836 397,837 Z M 521,668 521.06755,671.05355 Z M 499,841 495.94645,841.06755 498.99999,841 Z M 452,631 V 633 Z M 410,336 410.06755,339.05355 410,336.00001 Z M 502,608 507.48086,604.93537 Z M 518,860 517.93245,856.94645 Z M 388,369 389,367 Z M 274,594 V 595 Z M 472,872 473,870 Z M 344,875 345.67343,876.33821 Z M 484,329 486,330 Z M 286,584 284,583 Z M 276,583 V 584 Z M 296,584 297,582 Z M 450,574 H 448 Z M 421,373 H 422 Z M 501,560 499,559 Z M 387,561 390.05355,560.93245 387.00001,561 Z M 347,895 350.05355,894.93245 347.00001,895 Z M 555,544 556.67343,545.33821 Z M 335,533 H 337 Z M 536,531 H 537 Z M 475,531 475.06755,534.05355 Z M 384,382 385,380 Z M 332,940 335.05355,939.93245 332.00001,940 Z M 374,500 370.94645,500.06755 373.99999,500 Z M 514,452 H 512 Z M 306,440 304.34044,437.4359 305.99953,439.99928 Z M 498,412 H 496 Z M 327,417 H 328 Z M 350,420 H 351 Z M 512,412 513,413 Z M 498,412 499,413 Z M 342,412 343,413 Z M 252,444 V 445 Z M 514,452 515,453 Z M 328,456 H 329 Z M 373,503 374,504 Z M 375,504 H 376 Z M 379,384 V 385 Z M 356,514 V 515 Z M 530,521 529,522 Z M 398,526 399,527 Z M 512,379 513,380 Z M 510,379 511,380 Z M 335,533 V 534 Z M 335,536 336,535 Z M 335,537 336,538 Z M 453,550 454,549 Z M 455,551 456,550 Z M 506,553 V 554 Z M 426,554 427,555 Z M 419,372 420,373 Z M 583,571 584,572 Z M 451,576 V 577 Z M 275,584 V 583 Z M 271,590 272,591 Z M 487,590 488,591 Z M 367,607 368,608 Z M 359,613 360,612 Z M 367,614 368,613 Z M 453,634 454,635 Z M 421,364 H 422 Z M 419,363 420,364 Z M 433,646 V 647 Z M 420,362 H 421 Z M 466,650 467,649 Z M 441,651 442,652 Z M 263,659 264,660 Z M 372,660 373,661 Z M 488,680 489,679 Z M 259,680 V 681 Z M 501,682 502,683 Z M 345,683 346,684 Z M 417,683 418,684 Z M 420,683 421,684 Z M 536,685 535,686 Z M 534,687 535,688 Z M 308,688 309,689 Z M 306,689 307,690 Z M 289,700 290,699 Z M 291,708 292,709 Z M 416,355 H 417 Z M 543,717 544,716 Z M 551,737 552,736 Z M 439,749 H 438 Z M 510,749 511,750 Z M 438,750 437,751 Z M 439,750 440,751 Z M 502,762 503,761 Z M 500,762 501,763 Z M 428,767 V 768 Z M 446,769 447,768 Z M 444,770 445,771 Z M 430,772 431,773 Z M 416,774 V 775 Z M 479,781 480,780 Z M 550,797 551,798 Z M 295,809 V 810 Z M 564,812 565,811 Z M 309,813 310,812 Z M 542,815 541,816 Z M 493,821 494,822 Z M 307,832 V 833 Z M 479,832 480,833 Z M 399,834 400,833 Z M 504,852 505,853 Z M 551,854 552,855 Z M 504,855 505,856 Z M 552,855 553,856 Z M 543,859 542,860 Z M 506,865 507,866 Z M 342,867 343,866 Z M 312,873 313,872 Z M 433,890 432,891 Z M 431,892 V 893 Z M 348,894 349,893 Z M 481,320 V 321 Z M 363,903 364,904 Z M 407,940 V 941 Z M 232,536 233,535 Z M 601,822 598.85725,814.82514 Z M 607,787 607.2882,788.34695 Z M 608,724 604.98505,718.49166 Z M 598,874 C 557.9633,871.88666 609.61237,847.33919 598,874 Z M 602,676 602.25892,679.07098 C 602.25892,679.07098 602,676 602,676 Z M 600,678 599,679 Z M 623,714 H 621 Z M 626,711 627,712 Z M 632,716 631,717 Z M 587,491 V 493 Z M 582,486 583,484 Z M 508,311 507.6976,313.04104 Z M 628,737 628.06755,740.05355 Z M 632,733 633,734 Z M 331,576 329,577 Z M 326,601 327,602 Z M 522,579 523,578 Z M 527,391 528,392 Z M 596,480 595,481 Z M 562,682 563,683 Z M 539,891 540,892 Z M 567,559 568,560 Z M 538,420 H 537 Z M 508,423 509,424 Z M 499,336 H 498 Z M 499,337 V 338 Z M 438,643 439,644 Z M 364,705 363,706 Z M 367,706 H 365 Z M 418,378 C 424.28337,383.40534 426.85403,385.61679 418,378 Z"
         style="fill:#090b0b;fill-opacity:1"
         id="path19" />
    </g>
    <path
       d="M 30,34 C 252.33333,34 474.66667,34 697,34 697,313 697,592 697,871 474.66667,871 252.33333,871 30,871 30,592 30,313 30,34 Z"
       style="fill:none;fill-opacity:1;fill-rule:evenodd;stroke:#282828;stroke-width:1.5;stroke-linejoin:round;stroke-miterlimit:4;stroke-dasharray:none;stroke-opacity:1"
       id="path23" />
  </g>
</svg>
