<?xml version="1.0" encoding="UTF-8" standalone="no"?>
<svg
   width="973.7"
   height="1201"
   viewBox="0 0 730.3 900.7"
   version="1.1"
   id="svg27"
   sodipodi:docname="output_393.svg"
   xmlns:inkscape="http://www.inkscape.org/namespaces/inkscape"
   xmlns:sodipodi="http://sodipodi.sourceforge.net/DTD/sodipodi-0.dtd"
   xmlns="http://www.w3.org/2000/svg"
   xmlns:svg="http://www.w3.org/2000/svg"
   xmlns:inkpad="http://taptrix.com/inkpad/svg_extensions">
  <sodipodi:namedview
     id="namedview29"
     pagecolor="#ffffff"
     bordercolor="#666666"
     borderopacity="1.0"
     inkscape:pageshadow="2"
     inkscape:pageopacity="0.0"
     inkscape:pagecheckerboard="0"
     showgrid="false" />
  <defs
     id="defs5">
    <clipPath
       id="a"
       clipPathUnits="userSpaceOnUse">
      <path
         d="M64 155h730v901H64z"
         style="fill:none;fill-rule:evenodd;stroke:#000;stroke-width:1.5"
         id="path2" />
    </clipPath>
  </defs>
  <g
     style="display:inline"
     id="g9">
    <path
       d="M 98,83 C 274.33333,83 450.66667,83 627,83 627,330.33333 627,577.66667 627,825 450.66667,825 274.33333,825 98,825 98,577.66667 98,330.33333 98,83 Z"
       style="fill:#ffffff;fill-opacity:1;fill-rule:evenodd;stroke:#000000;stroke-width:1.5;stroke-linejoin:round"
       id="path7" />
  </g>
  <g
     style="display:inline"
     id="g25">
    <g
       inkpad:layerName="Untitled"
       fill="#393955"
       clip-path="url(#a)"
       style="fill:#090b0b;fill-opacity:1"
       transform="translate(-64 -155)"
       id="g21">
      <path
         d="M -4,-1 C -13.593674,347.56575 -3.43397,696.27486 -8.5799945,1044.8867 319.91557,1104.7008 654.55589,1049.7222 985.22049,1078.2413 1054.4637,1063.1327 1100.32,982.63033 1078.3598,915.32287 1065.5143,653.42645 1079.1858,391.17706 1071.7093,129.17712 1108.1865,65.533408 1039.4667,-24.12731 968.52927,-5.4325965 644.42543,4.1311956 320.15914,-5.0656515 -4,-1 Z M 429,276 H 427 Z M 411,277 410,279 Z M 408,278 C 401.74022,305.30133 403.86344,269.33585 405.76732,276.18658 Z M 409,278 408,279 Z M 458,284 C 451.69159,278.96498 451.22399,278.59176 458,284 Z M 469,287 C 510.45106,284.67522 445.46329,310.39961 469,287 Z M 443,288 C 479.18172,348.81682 496.06781,418.87815 532.45957,479.58746 551.74936,563.87325 525.73288,652.67392 553.10189,735.7462 566.07813,845.09164 436.79872,940.03062 336.34918,894.92299 262.70044,836.17066 241.80001,721.80512 289.9081,640.80153 351.21142,607.00857 343.73179,501.35598 278.36187,476.42834 233.1029,378.87817 343.05355,262.4741 443,288 Z M 340,292 337.16258,293.1304 339.99921,292.00033 Z M 465,304 H 467 Z M 314,304 C 280.77532,290.75272 331.33142,300.11268 314,304 Z M 496,310 495.10829,311.62541 Z M 297,316 296,317 Z M 490,320 488.29311,320.33014 Z M 367,332 H 370.0543 370.05431 367.00117 Z M 522,368 519.1905,369.00249 Z M 530,372 526.94713,371.90669 Z M 531,376 532.57027,378.61973 V 378.61974 L 531.00078,376.00132 Z M 534,393 532.51469,392.82819 Z M 495,405 494.99759,406.82295 Z M 506,408 507.14944,410.82976 V 410.82977 L 506,408.00001 Z M 560,412 559,414 Z M 528,415 526.66179,416.67343 Z M 438,416 C 433.1223,455.53115 414.46441,402.5935 438,416 Z M 525,418 522.04674,418.77909 Z M 532,428 528.46142,433.18563 Z M 573,453 C 598.16232,488.06053 537.14726,448.39211 573,453 Z M 244,458 C 242.2762,501.19006 221.71336,432.68182 244,458 Z M 590,461 C 590.94383,452.76732 591.32992,449.39954 590,461 Z M 591,472 584.97432,473.76167 Z M 600,476 603.13997,481.43638 Z M 565,483 C 554.61606,515.10276 579.37566,470.52891 565,483 Z M 500,486 498.85251,483.16945 499.99967,485.9992 Z M 608,492 C 602.04963,486.54648 601.6086,486.14228 608,492 Z M 267,497 269.82235,495.83248 H 269.82236 L 267.00001,497 Z M 571,507 C 578.59733,504.27452 579.16045,504.07251 571,507 Z M 627,509 627.18311,505.95119 V 505.95118 L 627,508.99999 Z M 606,512 C 634.84647,491.91662 599.80127,523.81375 606,512 Z M 568,515 566.94979,513.38681 Z M 564,542 C 556.37517,544.64755 555.80999,544.84379 564,542 Z M 612,546 613.73695,544.61319 Z M 633,549 630.08762,548.07977 H 630.08761 L 632.99999,549 Z M 321,559 C 308.07956,574.80645 307.36333,560.57211 320.62488,556.35703 Z M 598,559 C 602.50635,565.95414 604.34982,568.79896 598,559 Z M 626,562 624.12903,561.76833 Z M 583,567 582,568 Z M 596,570 598.96555,570.73095 Z M 510,573 507.82944,573.46 Z M 635,581 C 629.70496,574.62578 627.53892,572.01829 635,581 Z M 608,584 C 642.55501,602.82223 585.25262,603.42587 608,584 Z M 273,585 H 275 Z M 532,589 C 542.44587,628.63085 503.09552,570.89207 532,589 Z M 620,593 C 654.00271,609.85054 598.17128,605.9371 620,593 Z M 508,598 507.86867,599.78179 Z M 581,600 586.69317,595.1389 Z M 635,602 C 637.13977,623.04676 625.87822,589.00479 635,602 Z M 510,606 509,607 Z M 509,610 V 612 Z M 611,615 C 622.94581,651.97872 585.82993,608.36712 611,615 Z M 636,615 C 614.32861,651.87543 628.11775,581.17603 636,615 Z M 511,617 507.93613,611.52049 Z M 581,617 C 579.67962,624.96268 579.58175,625.55289 581,617 Z M 573,628 580.27543,626.23628 Z M 595,628 C 632.47498,646.50069 566.75006,649.05527 595,628 Z M 628,641 625.93987,641.79531 Z M 561,655 C 538.10733,666.54245 569.35881,634.92149 561,655 Z M 642,658 635.72551,658.20745 Z M 578,667 C 555.33257,701.49614 572.80131,633.66827 578,667 Z M 559,668 C 543.99128,657.01475 573.04333,668.91454 559,668 Z M 642,670 C 662.83416,704.84216 615.64486,671.53102 642,670 Z M 602,675 C 598.40358,715.22107 573.13279,656.45928 602,675 Z M 551,684 C 551.03316,675.92867 551.03562,675.33039 551,684 Z M 625,690 C 664.44161,688.95324 613.10792,719.61246 625,690 Z M 597,691 C 610.18255,730.00277 570.68201,686.77878 597,691 Z M 646,701 646.00015,702.75876 Z M 580,707 C 612.44181,730.39328 556.42095,722.47648 580,707 Z M 634,713 C 653.4115,746.67593 608.0809,711.80637 634,713 Z M 589,722 C 620.43694,747.09726 564.96171,733.95821 589,722 Z M 576,739 574.02356,736.67139 V 736.67138 L 575.99945,738.99935 Z M 564,746 563,747 Z M 565,749 563,750 Z M 609,753 606.34265,752.03834 Z M 567,761 573.49432,757.27625 Z M 614,765 612.20497,765.1415 Z M 625,771 C 609.29834,766.98713 632.81824,782.41536 625,771 Z M 576,774 577.95653,775.08787 Z M 573,780 571.80354,781.60843 Z M 579,789 C 611.54945,811.29953 554.57185,805.97013 579,789 Z M 505,795 504.18645,797.94396 Z M 618,823 C 643.60337,850.82201 593.16538,833.35106 618,823 Z M 550,828 C 588.86356,822.60152 542.98732,857.40508 550,828 Z M 577,839 578.08583,838.18962 Z M 554,845 553,847 Z M 575,847 578.04276,847.17341 Z M 610,848 613.00517,848.54562 Z M 546,856 544.08555,854.8894 Z M 530,857 C 521.68721,896.86162 512.44864,827.92735 530,857 Z M 588,858 C 556.34626,884.09395 588.42409,821.10277 588,858 Z M 533,878 534.54591,880.63418 533.00001,878.00001 Z M 456,888 C 440.8221,926.68964 443.18411,855.80341 456,888 Z M 485,890 C 507.24837,895.55019 468.15946,898.34166 485,890 Z M 521,891 C 551.9452,915.59313 496.71391,900.51501 521,891 Z M 561,892 563.22946,889.91236 561.00001,891.99999 Z M 411,892 C 452.54009,897.26073 394.72053,913.74747 411,892 Z M 579,893 C 582.29416,910.80124 563.93058,891.84173 579,893 Z M 475,896 C 482.71725,893.63531 483.28925,893.46004 475,896 Z M 545,896 539.07231,898.06754 Z M 397,899 398.53254,899.75251 Z M 568,902 566,903 Z M 498,907 C 473.3088,941.87457 479.19187,877.47242 498,907 Z M 462,909 464.40818,910.8767 Z M 509,910 508.50183,913.01622 508.50097,913.02143 508.99914,910.00521 Z M 336,911 336.4425,907.97792 Z M 403,912 403.55542,910.80266 Z M 375,924 376.49815,925.52489 Z M 382,925 386.89208,921.06556 Z M 484,928 484.20405,931.04692 Z M 377,935 C 384.8612,932.37924 388.07714,931.30711 377,935 Z M 469,935 470.69025,935.76357 Z"
         style="fill:#090b0b;fill-opacity:1"
         id="path11" />
      <path
         d="M 449,628 C 383.7947,646.73898 342.66159,723.66037 363.38686,788.28272 422.17898,831.53058 511.8919,748.01763 472.95777,686.28412 464.40041,667.09354 457.31136,647.29387 449,628 Z M 448,637 H 447.5 Z M 455,649 454.90091,652.05269 V 652.0527 L 455,649.00001 Z M 357,704 355.58658,705.83064 Z M 359,705 C 373.04633,683.86711 357.38751,723.78998 359,705 Z M 380,706 378.66179,707.67343 Z M 376,706 377,707 Z M 331,718 329.58658,719.83064 Z M 328,718 C 349.60095,689.90763 313.90528,725.68371 328,718 Z M 297,734 300.01961,733.69895 Z M 317,734 C 334.0859,773.29579 287.8079,722.07814 317,734 Z M 476,755 474,756 Z M 477,758 475.58658,759.83064 Z M 470,761 468.77657,762.82465 Z M 472,764 470.58658,765.83064 Z M 396,779 397.33392,776.25253 Z M 458,781 C 469.21836,819.19255 432.75842,773.89751 458,781 Z M 404,784 C 412.85377,822.88711 379.06307,776.79715 404,784 Z M 439,786 H 438.5 Z M 436,787 437.79369,788.11965 Z M 406,797 C 448.15494,797.13783 387.29599,828.59412 406,797 Z M 363,797 361.4265,794.38221 362.99955,796.99926 Z M 346,800 348.56103,801.66429 H 348.56104 L 346.00088,800.00054 Z M 316,801 C 354.59349,813.17851 294.82231,817.49265 316,801 Z M 333,804 335.29535,803.61333 Z M 435,809 435.73412,811.96476 V 811.96477 L 435,809.00001 Z M 470,810 C 477.20998,806.3718 477.74439,806.10287 470,810 Z M 378,810 C 413.89394,827.05434 357.42871,830.16131 378,810 Z M 418,825 H 420 Z M 353,835 351.88367,833.61348 Z M 346,837 344.1616,837.01011 Z M 362,837 363,838 Z M 333,839 C 347.85889,824.15286 332.87731,857.71659 333,839 Z M 349,842 H 348.5 Z M 413,355 C 452.75291,365.74288 406.80319,328.86927 413,355 Z M 399,370 C 439.51674,362.49117 376.49489,397.17318 399,370 Z M 432,384 429.02421,384.58967 Z M 358,428 C 366.24179,443.63717 343.92972,431.19964 358,428 Z M 354,448 355.40274,450.69835 Z M 363,485 361.58658,486.83064 Z M 367,496 368,497 Z M 376,902 C 364.82134,861.96727 402.81678,906.1498 376,902 Z M 309,440 C 300.64266,398.77965 336.40179,458.68355 309,440 Z"
         style="fill:#090b0b;fill-opacity:1"
         id="path13" />
      <path
         d="M 456,836 C 439.27407,872.18863 436.91673,815.9599 456,836 Z M 550,797 C 530.32712,816.69295 553.60713,784.07765 549.49624,793.6451 Z M 498,711 C 526.78472,739.45452 472.67826,718.12348 498,711 Z M 493,713 491.66179,711.32657 Z M 491,674 C 495.60791,713.43878 467.43341,662.59063 491,674 Z M 533,855 C 496.85975,837.57067 553.83441,836.23738 533,855 Z M 312,378 C 272.07941,390.51841 328.92954,348.08895 312,378 Z M 379,360 C 337.67114,351.08008 409.17497,341.72126 379,360 Z M 483,790 C 502.46059,755.52051 497.27075,811.67545 483,790 Z M 507,540 504.16243,538.87098 Z M 507,540 508,538 Z M 471,352 469.07477,354.15277 Z M 561,447 C 573.11318,485.98676 532.59204,430.24069 561,447 Z M 260,661 C 267.58963,682.59615 249.37401,669.64445 260,661 Z M 310,864 C 277.05046,833.56954 340.45956,862.2575 310,864 Z"
         style="fill:#090b0b;fill-opacity:1"
         id="path15" />
      <path
         d="M 482,847 C 463.53997,881.26243 469.20778,824.28475 482,847 Z M 369,769 C 377.38186,728.36905 390.5405,785.31453 369,769 Z M 519,464 C 506.41873,504.05559 504.18223,433.18748 519,464 Z M 478,871 C 516.45141,889.90892 447.63659,881.14569 478,871 Z M 378,506 C 396.16437,543.33314 391.53252,481.82452 378,506 Z M 383,515 H 382.5 Z M 402,767 C 437.248,741.31504 396.96535,797.4272 402,767 Z M 334,348 C 310.13533,381.16889 330.31024,314.9523 334,348 Z M 370,378 C 347.53851,354.60693 383.29972,380.8545 370,378 Z M 439,357 C 452.44075,346.40059 440.971,374.03023 439,357 Z M 456,546 454.52597,547.0708 Z M 456,546 V 547 Z M 493,875 C 511.64357,845.28974 493.8291,891.43098 493,875 Z M 502,607 C 482.08058,564.38049 531.80836,616.56906 502,607 Z M 469,665 C 457.08738,678.59583 483.93608,669.85531 469,665 Z M 462,484 C 464.11557,491.78922 464.27238,492.36658 462,484 Z M 377,929 378.96531,928.08309 Z M 471,356 471.06338,358.18887 Z M 364,904 C 355.94126,904.45201 355.34393,904.48551 364,904 Z M 359,915 H 358.5 Z M 319,552 315.98196,545.14916 Z M 375,867 372.20095,868.22232 374.99921,867.00035 Z M 415,861 C 396.86116,900.44791 404.11467,831.49568 415,861 Z M 329,782 329.34882,783.91859 Z M 315,881 313.83392,879.14243 Z M 282,693 278.76486,687.61984 Z M 506,388 C 514.23138,388.95472 517.59872,389.34527 506,388 Z M 524,541 517.08815,543.87557 Z M 505,780 503.40155,777.39737 504.99999,779.99998 Z M 468,844 465.66855,845.9731 467.99934,844.00055 Z M 539,815 538.09327,817.91661 V 817.91662 L 539,815.00001 Z M 364,396 365.19513,398.81077 V 398.81078 L 364,396.00001 Z M 422,880 419.21015,880.65506 Z M 355,863 C 362.65581,865.5566 363.22328,865.7461 355,863 Z M 568,590 569.41693,592.43423 Z M 457,384 455.23317,384.49696 Z M 473,872 465.71508,870.27594 Z M 407,755 408.78614,757.44221 Z M 252,444 257.174,440.44445 Z M 324,906 325.39116,907.72712 Z M 369,769 369.09181,761.51441 Z M 471,594 469.92762,592.3015 471,595 M 444,770 444.29892,766.96036 Z M 336,897 338.65675,898.50679 336.00001,897.00001 Z M 509,743 507.03581,741.99572 Z M 456,368 454.81444,370.81054 Z M 501,682 502.31264,682.67211 Z M 328,889 326.4272,888.18079 Z M 459,499 C 469.10701,518.81834 473.64115,498.28364 459,499 Z M 337,407 345.31292,402.61436 Z M 512,840 512.85078,842.19414 Z M 517,776 515.83323,773.17734 516.99967,775.99921 Z M 485,549 486.30653,548.70662 Z M 275,656 272.73007,653.95644 274.99999,655.99999 Z M 513,564 C 504.14129,564.65543 501.78426,564.82982 513,564 Z M 533,802 C 537.36468,795.21051 537.6882,794.70725 533,802 Z M 512,756 515.51229,761.20346 Z M 434,757 C 433.90071,748.92921 433.89335,748.33097 434,757 Z M 379,384 373.22209,379.23992 Z M 307,832 306.47421,835.01719 V 835.0172 L 307,832.00001 Z M 493,820 495.82696,821.22516 495.83065,821.22676 493.00369,820.0016 Z M 501,641 500.46009,643.08541 Z M 496,758 495.53539,751.7393 Z M 496,758 497,759 Z M 463,742 C 491.0313,737.98017 453.55854,750.31567 461.84577,745.09543 Z M 388,369 388.13081,365.9485 Z M 479,722 477.85672,723.39695 Z M 376,903 374.00287,902.90691 Z M 352,510 349.9762,511.43632 Z M 336,443 336.50439,445.29932 Z M 530,521 526.97227,521.40198 H 526.97226 L 529.99999,521 Z M 494,876 496.51384,877.73474 Z M 417,890 413.13581,894.94776 Z M 320,928 320.26928,921.72785 Z M 519,829 C 512.4283,834.04781 509.73997,836.11276 519,829 Z M 472,407 C 470.22315,414.8734 470.09145,415.45699 472,407 Z M 330,914 C 313.23729,941.2539 333.19964,892.31788 330,914 Z M 307,819 308.74941,812.97075 Z M 519,732 518.48241,726.29832 Z M 413,529 412.59704,532.0276 V 532.02761 L 413,529.00001 Z M 462,745 455.72307,745.1116 Z M 417,355 419.86155,356.06785 H 419.86156 L 417.00001,355 Z M 367,919 367.11199,917.06916 Z M 509,592 509.63328,589.18147 Z M 434,325 431.59741,324.63181 Z M 454,577 C 438.36283,585.24179 450.80036,562.92972 454,577 Z M 426,773 427.71651,774.68468 Z M 501,560 501.96548,562.89643 502,563 M 502,563 501.03452,560.10357 501,560 M 364,901 359.30356,896.83398 Z M 279,583 281.86456,584.05975 H 281.86457 L 279.00001,583 Z M 432,766 428.94713,765.90667 431.99999,766 Z M 463,445 467.69639,449.16607 Z M 384,857 386.35036,858.95053 386.35037,858.95054 384.00001,857.00001 Z M 482,847 485.03377,847.35351 H 485.03378 L 482.00001,847 Z"
         style="fill:#090b0b;fill-opacity:1"
         id="path17" />
      <path
         d="M 462,748 C 479.16487,743.47336 453.47423,760.39739 462,748 Z M 536,489 532.93432,488.92194 532.92605,488.92173 535.99173,488.99979 Z M 514,851 513.90667,854.05287 Z M 570,501 572.47797,502.78562 Z M 369,501 374.22731,504.47671 Z M 352,510 350,508 Z M 452,631 451.03412,628.10244 Z M 435,359 433.99282,360.8253 Z M 364,901 363.18025,902.53452 Z M 422,554 424.89401,554.00756 Z M 382,883 383,885 Z M 339,876 C 350.74756,888.9036 326.0964,864.25244 339,876 Z M 286,584 C 286.85131,565.82153 286.85131,602.17847 286,584 Z M 294,584 293,585 M 382,519 379.10243,518.03415 Z M 346,387 C 345.45215,398.76105 345.45215,375.23895 346,387 Z M 357,657 356.11239,659.01526 Z M 263,659 261,660 Z M 383,671 383.00756,668.10599 Z M 445,829 442.72581,834.25405 Z M 328,692 C 328.85131,673.82153 328.85131,710.17847 328,692 Z M 445,827 442.20087,828.22214 H 442.20086 L 444.99999,827 Z M 498,705 498.88761,702.98474 Z M 484,825 486.60941,823.41264 484.00001,825 Z M 393,418 389.94645,418.06755 392.99999,418 Z M 463,445 C 462.14869,463.17847 462.14869,426.82153 463,445 Z M 294,807 296.60941,805.41264 294.00001,807 Z M 426,773 428.89757,773.96585 Z M 347,813 343.94645,813.06755 346.99999,813 Z M 341,816 341.06755,819.05355 Z M 307,819 303.94645,819.06755 306.99999,819 Z M 543,720 543.06755,723.05355 Z M 303,711 303.06755,714.05355 Z M 356,689 H 357 Z M 491,674 493,675 Z M 462,674 462.06755,677.05355 Z M 398,835 396.34044,832.4359 Z M 395,836 397,837 Z M 521,668 521.06755,671.05355 Z M 499,841 495.94645,841.06755 498.99999,841 Z M 452,631 V 633 Z M 410,336 410.06755,339.05355 410,336.00001 Z M 502,608 507.47952,604.93615 Z M 518,860 517.93245,856.94645 Z M 388,369 389,367 Z M 274,594 V 595 Z M 472,872 473,870 Z M 344,875 345.67343,876.33821 Z M 484,329 486,330 Z M 286,584 284,583 Z M 276,583 V 584 Z M 296,584 297,582 Z M 450,574 H 448 Z M 421,373 H 422 Z M 501,560 499,559 Z M 387,561 390.05355,560.93245 387.00001,561 Z M 347,895 350.05355,894.93245 347.00001,895 Z M 555,544 556.67343,545.33821 Z M 335,533 H 337 Z M 536,531 H 537 Z M 475,531 475.06755,534.05355 Z M 384,382 385,380 Z M 332,940 335.05355,939.93245 332.00001,940 Z M 374,500 370.94645,500.06755 373.99999,500 Z M 514,452 H 512 Z M 306,440 304.34044,437.4359 305.99953,439.99928 Z M 498,412 H 496 Z M 327,417 H 328 Z M 350,420 H 351 Z M 512,412 513,413 Z M 498,412 499,413 Z M 342,412 343,413 Z M 252,444 V 445 Z M 514,452 515,453 Z M 328,456 H 329 Z M 373,503 374,504 Z M 375,504 H 376 Z M 379,384 V 385 Z M 356,514 V 515 Z M 530,521 529,522 Z M 398,526 399,527 Z M 512,379 513,380 Z M 510,379 511,380 Z M 335,533 V 534 Z M 335,536 336,535 Z M 335,537 336,538 Z M 453,550 454,549 Z M 455,551 456,550 Z M 506,553 V 554 Z M 426,554 427,555 Z M 419,372 420,373 Z M 583,571 584,572 Z M 451,576 V 577 Z M 275,584 V 583 Z M 271,590 272,591 Z M 487,590 488,591 Z M 367,607 368,608 Z M 359,613 360,612 Z M 367,614 368,613 Z M 453,634 454,635 Z M 421,364 H 422 Z M 419,363 420,364 Z M 433,646 V 647 Z M 420,362 H 421 Z M 466,650 467,649 Z M 441,651 442,652 Z M 263,659 264,660 Z M 372,660 373,661 Z M 488,680 489,679 Z M 259,680 V 681 Z M 501,682 502,683 Z M 345,683 346,684 Z M 417,683 418,684 Z M 420,683 421,684 Z M 536,685 535,686 Z M 534,687 535,688 Z M 308,688 309,689 Z M 306,689 307,690 Z M 289,700 290,699 Z M 291,708 292,709 Z M 416,355 H 417 Z M 543,717 544,716 Z M 551,737 552,736 Z M 439,749 H 438 Z M 510,749 511,750 Z M 438,750 437,751 Z M 439,750 440,751 Z M 502,762 503,761 Z M 500,762 501,763 Z M 428,767 V 768 Z M 446,769 447,768 Z M 444,770 445,771 Z M 430,772 431,773 Z M 416,774 V 775 Z M 479,781 480,780 Z M 550,797 551,798 Z M 295,809 V 810 Z M 564,812 565,811 Z M 309,813 310,812 Z M 542,815 541,816 Z M 493,821 494,822 Z M 307,832 V 833 Z M 479,832 480,833 Z M 399,834 400,833 Z M 504,852 505,853 Z M 551,854 552,855 Z M 504,855 505,856 Z M 552,855 553,856 Z M 543,859 542,860 Z M 506,865 507,866 Z M 342,867 343,866 Z M 312,873 313,872 Z M 433,890 432,891 Z M 431,892 V 893 Z M 348,894 349,893 Z M 481,320 V 321 Z M 363,903 364,904 Z M 407,940 V 941 Z M 232,536 233,535 Z M 601,822 598.85778,814.8269 Z M 607,787 607.2882,788.34695 Z M 608,724 604.98577,718.49303 Z M 598,874 C 599.03212,912.45962 575.89756,860.15458 598,874 Z M 602,676 C 626.12436,654.223 600.09995,689.98977 602,676 Z M 600,678 599,679 Z M 623,714 H 621 Z M 626,711 627,712 Z M 632,716 631,717 Z M 587,491 V 493 Z M 582,486 583,484 Z M 508,311 507.6976,313.04104 Z M 628,737 628.06755,740.05355 Z M 632,733 633,734 Z M 331,576 329,577 Z M 326,601 327,602 Z M 522,579 523,578 Z M 527,391 528,392 Z M 596,480 595,481 Z M 562,682 563,683 Z M 539,891 540,892 Z M 567,559 568,560 Z M 538,420 H 537 Z M 508,423 509,424 Z M 499,336 H 498 Z M 499,337 V 338 Z M 438,643 439,644 Z M 364,705 363,706 Z M 367,706 H 365 Z M 418,378 C 424.28194,383.40413 426.85176,385.61486 418,378 Z"
         style="fill:#090b0b;fill-opacity:1"
         id="path19" />
    </g>
    <path
       d="M 30,34 C 252.33333,34 474.66667,34 697,34 697,313 697,592 697,871 474.66667,871 252.33333,871 30,871 30,592 30,313 30,34 Z"
       style="fill:none;fill-opacity:1;fill-rule:evenodd;stroke:#282828;stroke-width:1.5;stroke-linejoin:round;stroke-miterlimit:4;stroke-dasharray:none;stroke-opacity:1"
       id="path23" />
  </g>
</svg>
