<?xml version="1.0" encoding="UTF-8" standalone="no"?>
<svg
   width="973.7"
   height="1201"
   viewBox="0 0 730.3 900.7"
   version="1.1"
   id="svg27"
   sodipodi:docname="output_894.svg"
   xmlns:inkscape="http://www.inkscape.org/namespaces/inkscape"
   xmlns:sodipodi="http://sodipodi.sourceforge.net/DTD/sodipodi-0.dtd"
   xmlns="http://www.w3.org/2000/svg"
   xmlns:svg="http://www.w3.org/2000/svg"
   xmlns:inkpad="http://taptrix.com/inkpad/svg_extensions">
  <sodipodi:namedview
     id="namedview29"
     pagecolor="#ffffff"
     bordercolor="#666666"
     borderopacity="1.0"
     inkscape:pageshadow="2"
     inkscape:pageopacity="0.0"
     inkscape:pagecheckerboard="0"
     showgrid="false" />
  <defs
     id="defs5">
    <clipPath
       id="a"
       clipPathUnits="userSpaceOnUse">
      <path
         d="M64 155h730v901H64z"
         style="fill:none;fill-rule:evenodd;stroke:#000;stroke-width:1.5"
         id="path2" />
    </clipPath>
  </defs>
  <g
     style="display:inline"
     id="g9">
    <path
       d="M 98,83 C 274.33333,83 450.66667,83 627,83 627,330.33333 627,577.66667 627,825 450.66667,825 274.33333,825 98,825 98,577.66667 98,330.33333 98,83 Z"
       style="fill:#ffffff;fill-opacity:1;fill-rule:evenodd;stroke:#000000;stroke-width:1.5;stroke-linejoin:round"
       id="path7" />
  </g>
  <g
     style="display:inline"
     id="g25">
    <g
       inkpad:layerName="Untitled"
       fill="#393955"
       clip-path="url(#a)"
       style="fill:#090b0b;fill-opacity:1"
       transform="translate(-64 -155)"
       id="g21">
      <path
         d="M -4,-1 C -13.545091,347.56628 -3.4635618,696.2747 -8.5799945,1044.8867 320.56862,1095.7341 654.36292,1055.1849 985.22049,1078.2413 1053.8273,1062.0662 1099.2287,982.6506 1078.3598,915.32287 1065.7147,653.42243 1079.0856,391.17807 1071.7093,129.17712 1099.2082,56.885259 1019.7968,-27.690559 945.91784,-4.7954149 629.33586,3.7106721 312.62382,-4.9711435 -4,-1 Z M 429,276 H 427 Z M 411,277 410,279 Z M 408,278 405.18892,276.73999 405.18891,276.73998 407.99999,278 Z M 409,278 408,279 Z M 458,284 453.09279,280.08332 Z M 469,287 C 503.08507,308.44201 443.73803,298.17797 469,287 Z M 443,288 C 478.44161,349.17889 496.83473,418.50137 532.45957,479.58746 546.74989,567.73667 533.65861,658.37759 553.59833,745.84751 552.49208,849.61702 433.56939,931.2213 336.34918,894.92299 249.25675,827.9349 240.26965,683.25022 318.42798,606.01586 340.48886,523.88153 254.84686,453.80064 281.69296,371.71162 307.95821,311.54911 378.67376,274.7479 443,288 Z M 340,292 337.16258,293.1304 339.99921,292.00033 Z M 465,304 H 467 Z M 314,304 313.03961,306.91861 Z M 496,310 495.10829,311.62541 Z M 297,316 296,317 Z M 490,320 488.29311,320.33014 Z M 367,332 H 370.0543 370.05431 367.00117 Z M 522,368 519.1905,369.00249 Z M 530,372 526.94713,371.90669 Z M 531,376 532.57027,378.61973 V 378.61974 L 531.00078,376.00132 Z M 534,393 532.51469,392.82819 Z M 495,405 494.99759,406.82295 Z M 506,408 507.14944,410.82976 V 410.82977 L 506,408.00001 Z M 560,412 559,414 Z M 528,415 526.66179,416.67343 Z M 438,416 C 420.92198,453.34934 428.04316,384.79952 438,416 Z M 525,418 522.04674,418.77909 Z M 532,428 C 527.45,434.66776 527.11271,435.16204 532,428 Z M 573,453 C 599.77972,484.16425 539.7832,461.69697 573,453 Z M 244,458 C 237.7864,498.25613 215.89225,439.18032 244,458 Z M 590,461 590.85317,453.5618 Z M 591,472 C 583.25206,474.26515 582.6777,474.43307 591,472 Z M 600,476 C 604.03721,482.99017 604.33648,483.50834 600,476 Z M 565,483 568.82644,478.02211 Z M 500,486 498.85251,483.16945 499.99967,485.9992 Z M 608,492 603.37135,487.75776 Z M 267,497 269.82235,495.83248 H 269.82236 L 267.00001,497 Z M 571,507 576.90978,504.87973 Z M 627,509 627.18311,505.95119 V 505.95118 L 627,508.99999 Z M 606,512 604.58394,513.14144 Z M 568,515 566.94979,513.38681 Z M 564,542 558.06884,544.05969 Z M 612,546 613.73695,544.61319 Z M 633,549 630.08762,548.07977 H 630.08761 L 632.99999,549 Z M 321,559 317.98663,559.63984 Z M 598,559 602.07145,565.28316 Z M 626,562 624.12903,561.76833 Z M 583,567 582,568 Z M 596,570 598.96555,570.73095 Z M 510,573 507.82944,573.46 Z M 635,581 630.21587,575.24093 Z M 608,584 C 632.53844,618.36457 575.26563,578.07612 608,584 Z M 273,585 H 275 Z M 532,589 C 539.542,627.67511 501.17182,582.48976 532,589 Z M 620,593 C 646.15687,625.82342 585.52018,600.94247 620,593 Z M 508,598 507.86867,599.78179 Z M 581,600 C 587.30246,594.61856 589.88083,592.41699 581,600 Z M 635,602 629.09678,604.13847 Z M 510,606 509,607 Z M 509,610 V 612 Z M 611,615 C 622.74639,656.41015 582.33622,598.45992 611,615 Z M 636,615 C 611.14805,646.04104 621.01446,589.59987 636,615 Z M 511,617 C 507.06049,609.95433 506.76844,609.432 511,617 Z M 581,617 579.97242,623.19396 Z M 573,628 C 581.05416,626.04746 584.34903,625.2487 573,628 Z M 595,628 C 628.69944,648.62615 572.85044,643.75483 595,628 Z M 628,641 625.93987,641.79531 Z M 561,655 559.23374,657.52391 559.23373,657.52392 560.99999,655.00001 Z M 642,658 C 633.93217,658.26706 633.33407,658.28686 642,658 Z M 578,667 C 561.521,706.94185 555.6431,636.30659 578,667 Z M 559,668 556.52199,666.20016 Z M 642,670 C 658.67407,707.9121 609.2257,657.36979 642,670 Z M 602,675 C 585.17308,710.98075 587.83175,652.90796 602,675 Z M 551,684 551.02581,677.72144 Z M 625,690 C 660.84277,711.99171 590.77682,698.74444 625,690 Z M 597,691 C 604.80537,733.91888 570.19898,672.15507 597,691 Z M 646,701 646.00015,702.75876 Z M 580,707 C 612.05899,737.54699 549.74938,708.28947 580,707 Z M 634,713 C 653.57223,749.89631 600.22632,702.59109 634,713 Z M 589,722 C 612.12419,757.85726 558.55315,715.12955 589,722 Z M 576,739 574.02356,736.67139 V 736.67138 L 575.99945,738.99935 Z M 564,746 563,747 Z M 565,749 563,750 Z M 609,753 606.34265,752.03834 Z M 567,761 C 574.18946,756.87777 577.13067,755.19136 567,761 Z M 614,765 612.20497,765.1415 Z M 625,771 C 625.18626,779.28536 625.26246,782.67481 625,771 Z M 576,774 577.95653,775.08787 Z M 573,780 571.80354,781.60843 Z M 579,789 C 606.00945,824.70961 548.43799,785.10669 579,789 Z M 505,795 504.18645,797.94396 Z M 618,823 C 642.99918,853.89377 592.38144,827.87171 618,823 Z M 550,828 C 588.88409,842.038 518.71922,841.8175 550,828 Z M 577,839 578.08583,838.18962 Z M 554,845 553,847 Z M 575,847 578.04276,847.17341 Z M 610,848 613.00517,848.54562 Z M 546,856 544.08555,854.8894 Z M 530,857 C 521.49349,898.12507 502.34751,837.81723 530,857 Z M 588,858 C 541.48213,860.6651 606.55931,835.05245 588,858 Z M 533,878 534.54591,880.63418 533.00001,878.00001 Z M 456,888 C 436.55268,922.63808 436.45573,864.35755 456,888 Z M 485,890 485.41728,882.52466 Z M 521,891 C 551.11967,918.36466 484.3518,893.4511 521,891 Z M 561,892 563.22946,889.91236 561.00001,891.99999 Z M 411,892 C 450.53767,894.72637 396.67695,913.70366 411,892 Z M 579,893 C 596.99588,896.06634 571.37952,911.54417 579,893 Z M 475,896 481.0031,894.1605 Z M 545,896 C 537.3782,898.65887 536.81319,898.85598 545,896 Z M 397,899 398.53254,899.75251 Z M 568,902 566,903 Z M 498,907 C 477.76535,940.94638 479.42773,883.30732 498,907 Z M 462,909 464.40818,910.8767 Z M 509,910 508.50183,913.01622 508.50097,913.02143 508.99914,910.00521 Z M 336,911 336.4425,907.97792 Z M 403,912 403.55542,910.80266 Z M 375,924 376.49815,925.52489 Z M 382,925 C 388.2903,919.941 388.75661,919.56597 382,925 Z M 484,928 484.20405,931.04692 Z M 377,935 384.10263,932.632 Z M 469,935 470.69025,935.76357 Z"
         style="fill:#090b0b;fill-opacity:1"
         id="path11" />
      <path
         d="M 449,628 C 384.24166,647.43669 343.53255,723.65119 363.38686,788.28272 431.34959,811.29464 501.27117,721.97684 462.61769,661.52529 458.14211,650.32473 453.77264,639.07914 449,628 Z M 448,637 H 447.5 Z M 455,649 454.90091,652.05269 V 652.0527 L 455,649.00001 Z M 357,704 355.58658,705.83064 Z M 359,705 360.05908,698.81135 Z M 380,706 378.66179,707.67343 Z M 376,706 377,707 Z M 331,718 329.58658,719.83064 Z M 328,718 325.29829,719.47577 Z M 297,734 300.01961,733.69895 Z M 317,734 C 337.42396,772.24597 278.62577,731.39243 317,734 Z M 476,755 474,756 Z M 477,758 475.58658,759.83064 Z M 470,761 468.77657,762.82465 Z M 472,764 470.58658,765.83064 Z M 396,779 397.33392,776.25253 Z M 458,781 C 463.53315,822.77757 430.9108,759.16558 458,781 Z M 404,784 C 393.76897,824.27812 382.39362,753.43568 404,784 Z M 439,786 H 438.5 Z M 436,787 437.79369,788.11965 Z M 406,797 C 442.79251,810.84485 385.17471,812.85512 406,797 Z M 363,797 361.4265,794.38221 362.99955,796.99926 Z M 346,800 348.56103,801.66429 H 348.56104 L 346.00088,800.00054 Z M 316,801 C 350.95333,825.63974 281.30982,816.16141 316,801 Z M 333,804 335.29535,803.61333 Z M 435,809 435.73412,811.96476 V 811.96477 L 435,809.00001 Z M 470,810 475.60857,807.17778 Z M 378,810 C 413.71677,838.60871 348.38448,814.13298 378,810 Z M 418,825 H 420 Z M 353,835 351.88367,833.61348 Z M 346,837 344.1616,837.01011 Z M 362,837 363,838 Z M 333,839 334.12406,836.80282 Z M 349,842 H 348.5 Z M 413,355 C 454.40841,355.83409 388.83027,332.26018 413,355 Z M 399,370 C 438.86076,370.34677 387.53526,398.31131 399,370 Z M 432,384 429.02421,384.58967 Z M 358,428 359.80941,428.09699 Z M 354,448 355.40274,450.69835 Z M 363,485 361.58658,486.83064 Z M 367,496 368,497 Z M 376,902 C 386.53547,860.904 391.3706,929.52009 376,902 Z M 309,440 C 299.58796,403.80068 340.03899,445.35384 309,440 Z"
         style="fill:#090b0b;fill-opacity:1"
         id="path13" />
      <path
         d="M 456,836 C 430.55718,872.80832 450.03711,804.3556 456,836 Z M 550,797 551.12411,794.13187 V 794.13186 L 550,796.99999 Z M 498,711 C 528.76629,741.52799 464.42222,710.43437 498,711 Z M 493,713 491.66179,711.32657 Z M 491,674 C 493.61218,714.41026 464.95035,651.35896 491,674 Z M 533,855 C 491.37224,834.02623 560.45112,844.51492 533,855 Z M 312,378 C 273.56173,394.54667 314.83734,342.39005 312,378 Z M 379,360 C 335.24121,357.24286 401.85438,328.64571 379,360 Z M 483,790 C 509.28301,758.04806 485.37265,824.32902 483,790 Z M 507,540 504.16243,538.87098 Z M 507,540 508,538 Z M 471,352 469.07477,354.15277 Z M 561,447 C 580.34393,486.83399 521.62005,443.85579 561,447 Z M 260,661 257.5364,659.15055 259.99999,660.99999 Z M 310,864 C 275.24716,844.08833 333.04579,851.03151 310,864 Z"
         style="fill:#090b0b;fill-opacity:1"
         id="path15" />
      <path
         d="M 482,847 C 461.43343,882.3024 474.32975,813.80296 482,847 Z M 369,769 C 388.04532,732.44872 378.26687,801.26545 369,769 Z M 519,464 C 506.0524,500.33936 496.04364,443.19373 519,464 Z M 478,871 C 515.941,891.62155 445.6666,890.47906 478,871 Z M 378,506 C 394.72284,543.95885 388.6001,475.12947 378,506 Z M 383,515 H 382.5 Z M 402,767 C 431.20908,738.44673 401.8764,801.03435 402,767 Z M 334,348 C 308.13442,380.2916 326.67611,311.92772 334,348 Z M 370,378 369.46536,374.9662 V 374.96619 L 370,377.99999 Z M 439,357 440.65767,359.59652 Z M 456,546 454.52597,547.0708 Z M 456,546 V 547 Z M 493,875 495.48049,876.13187 Z M 502,607 C 487.17273,568.06634 537.289,611.23308 502,607 Z M 469,665 471.55132,663.27357 471.55133,663.27356 469.00001,664.99999 Z M 462,484 463.64553,490.05915 Z M 377,929 378.96531,928.08309 Z M 471,356 471.06338,358.18887 Z M 364,904 357.73126,904.35204 Z M 359,915 H 358.5 Z M 319,552 C 315.65885,544.41601 314.29193,541.31327 319,552 Z M 375,867 372.20095,868.22232 374.99921,867.00035 Z M 415,861 C 405.21572,903.0553 397.11367,832.10939 415,861 Z M 329,782 329.34882,783.91859 Z M 315,881 313.83392,879.14243 Z M 282,693 C 277.8403,686.08202 277.53195,685.5692 282,693 Z M 506,388 513.43706,388.86311 Z M 524,541 C 516.34833,544.18339 513.21813,545.48567 524,541 Z M 505,780 503.40155,777.39737 504.99999,779.99998 Z M 468,844 465.66855,845.9731 467.99934,844.00055 Z M 539,815 538.09327,817.91661 V 817.91662 L 539,815.00001 Z M 364,396 365.19513,398.81077 V 398.81078 L 364,396.00001 Z M 422,880 419.21015,880.65506 Z M 355,863 360.95529,864.98886 Z M 568,590 569.41693,592.43423 Z M 457,384 455.23317,384.49696 Z M 473,872 C 464.9354,870.09138 461.63609,869.31054 473,872 Z M 407,755 408.78614,757.44221 Z M 252,444 C 258.65286,439.42824 259.14603,439.08935 252,444 Z M 324,906 325.39116,907.72712 Z M 369,769 C 369.10173,760.71319 369.14334,757.3231 369,769 Z M 471,594 469.92762,592.3015 471,595 M 444,770 444.29892,766.96036 Z M 336,897 338.65675,898.50679 336.00001,897.00001 Z M 509,743 507.03581,741.99572 Z M 456,368 454.81444,370.81054 Z M 501,682 502.31264,682.67211 Z M 328,889 326.4272,888.18079 Z M 459,499 C 443.91634,493.6312 463.68235,485.9744 459,499 Z M 337,407 C 345.20956,402.66883 350.96055,399.63473 337,407 Z M 512,840 512.85078,842.19414 Z M 517,776 515.83323,773.17734 516.99967,775.99921 Z M 485,549 486.30653,548.70662 Z M 275,656 272.73007,653.95644 274.99999,655.99999 Z M 513,564 505.53348,564.55307 Z M 533,802 536.39514,796.71853 Z M 512,756 C 516.51617,762.69071 516.85096,763.1867 512,756 Z M 434,757 433.92268,750.72186 Z M 379,384 C 372.60374,378.73043 369.98696,376.57459 379,384 Z M 307,832 306.47421,835.01719 V 835.0172 L 307,832.00001 Z M 493,820 495.82647,821.2251 Z M 501,641 500.46009,643.08541 Z M 496,758 C 495.40185,749.94993 495.35751,749.35317 496,758 Z M 496,758 497,759 Z M 463,742 C 478.77013,749.98262 449.18734,744.58095 463,742 Z M 388,369 388.13081,365.9485 Z M 479,722 477.85672,723.39695 Z M 376,903 374.00287,902.90691 Z M 352,510 349.9762,511.43632 Z M 336,443 336.50439,445.29932 Z M 530,521 526.97227,521.40198 H 526.97226 L 529.99999,521 Z M 494,876 496.51384,877.73474 Z M 417,890 C 412.03131,896.36189 411.66298,896.83349 417,890 Z M 320,928 C 320.34667,919.93519 320.37237,919.33733 320,928 Z M 519,829 513.06244,833.56072 Z M 472,407 470.61808,413.12465 Z M 330,914 331.59528,913.42724 Z M 307,819 C 309.24948,811.2475 309.41623,810.6728 307,819 Z M 519,732 C 518.22107,723.42884 518.39702,725.36487 519,732 Z M 413,529 412.59704,532.0276 V 532.02761 L 413,529.00001 Z M 462,745 C 453.92902,745.14365 453.3307,745.1543 462,745 Z M 417,355 419.86155,356.06785 H 419.86156 L 417.00001,355 Z M 367,919 367.11199,917.06916 Z M 509,592 509.63328,589.18147 Z M 434,325 431.59741,324.63181 Z M 454,577 453.90301,578.80941 Z M 426,773 427.71651,774.68468 Z M 501,560 501.96548,562.89643 502,563 M 502,563 501.03452,560.10357 501,560 M 364,901 C 357.96133,895.64315 357.51367,895.24603 364,901 Z M 279,583 281.86456,584.05975 H 281.86457 L 279.00001,583 Z M 432,766 428.94713,765.90667 431.99999,766 Z M 463,445 C 469.03849,450.35704 469.48615,450.75418 463,445 Z M 384,857 386.35036,858.95053 386.35037,858.95054 384.00001,857.00001 Z M 482,847 485.03377,847.35351 H 485.03378 L 482.00001,847 Z"
         style="fill:#090b0b;fill-opacity:1"
         id="path17" />
      <path
         d="M 462,748 461.21325,746.88383 Z M 536,489 532.93432,488.92194 532.92605,488.92173 535.99173,488.99979 Z M 514,851 513.90667,854.05287 Z M 570,501 572.47797,502.78562 Z M 369,501 C 375.72138,505.47042 376.21962,505.8018 369,501 Z M 352,510 350,508 Z M 452,631 451.03412,628.10244 Z M 435,359 433.99282,360.8253 Z M 364,901 363.18025,902.53452 Z M 422,554 424.89401,554.00756 Z M 382,883 383,885 Z M 339,876 C 353.67817,891.60865 323.39135,861.32183 339,876 Z M 286,584 C 286.68555,561.67381 286.68555,606.32619 286,584 Z M 294,584 293,585 M 382,519 379.10243,518.03415 Z M 346,387 C 345.55812,401.42336 345.55812,372.57664 346,387 Z M 357,657 356.11239,659.01526 Z M 263,659 261,660 Z M 383,671 383.00756,668.10599 Z M 445,829 C 441.58101,836.89825 442.35331,835.11415 445,829 Z M 328,692 C 328.68555,669.67381 328.68555,714.32619 328,692 Z M 445,827 442.20087,828.22214 H 442.20086 L 444.99999,827 Z M 498,705 498.88761,702.98474 Z M 484,825 486.60941,823.41264 484.00001,825 Z M 393,418 389.94645,418.06755 392.99999,418 Z M 463,445 C 462.31445,467.32619 462.31445,422.67381 463,445 Z M 294,807 296.60941,805.41264 294.00001,807 Z M 426,773 428.89757,773.96585 Z M 347,813 343.94645,813.06755 346.99999,813 Z M 341,816 341.06755,819.05355 Z M 307,819 303.94645,819.06755 306.99999,819 Z M 543,720 543.06755,723.05355 Z M 303,711 303.06755,714.05355 Z M 356,689 H 357 Z M 491,674 493,675 Z M 462,674 462.06755,677.05355 Z M 398,835 396.34044,832.4359 Z M 395,836 397,837 Z M 521,668 521.06755,671.05355 Z M 499,841 495.94645,841.06755 498.99999,841 Z M 452,631 V 633 Z M 410,336 410.06755,339.05355 410,336.00001 Z M 502,608 C 509.04572,604.06054 509.56802,603.76851 502,608 Z M 518,860 517.93245,856.94645 Z M 388,369 389,367 Z M 274,594 V 595 Z M 472,872 473,870 Z M 344,875 345.67343,876.33821 Z M 484,329 486,330 Z M 286,584 284,583 Z M 276,583 V 584 Z M 296,584 297,582 Z M 450,574 H 448 Z M 421,373 H 422 Z M 501,560 499,559 Z M 387,561 390.05355,560.93245 387.00001,561 Z M 347,895 350.05355,894.93245 347.00001,895 Z M 555,544 556.67343,545.33821 Z M 335,533 H 337 Z M 536,531 H 537 Z M 475,531 475.06755,534.05355 Z M 384,382 385,380 Z M 332,940 335.05355,939.93245 332.00001,940 Z M 374,500 370.94645,500.06755 373.99999,500 Z M 514,452 H 512 Z M 306,440 304.34044,437.4359 305.99953,439.99928 Z M 498,412 H 496 Z M 327,417 H 328 Z M 350,420 H 351 Z M 512,412 513,413 Z M 498,412 499,413 Z M 342,412 343,413 Z M 252,444 V 445 Z M 514,452 515,453 Z M 328,456 H 329 Z M 373,503 374,504 Z M 375,504 H 376 Z M 379,384 V 385 Z M 356,514 V 515 Z M 530,521 529,522 Z M 398,526 399,527 Z M 512,379 513,380 Z M 510,379 511,380 Z M 335,533 V 534 Z M 335,536 336,535 Z M 335,537 336,538 Z M 453,550 454,549 Z M 455,551 456,550 Z M 506,553 V 554 Z M 426,554 427,555 Z M 419,372 420,373 Z M 583,571 584,572 Z M 451,576 V 577 Z M 275,584 V 583 Z M 271,590 272,591 Z M 487,590 488,591 Z M 367,607 368,608 Z M 359,613 360,612 Z M 367,614 368,613 Z M 453,634 454,635 Z M 421,364 H 422 Z M 419,363 420,364 Z M 433,646 V 647 Z M 420,362 H 421 Z M 466,650 467,649 Z M 441,651 442,652 Z M 263,659 264,660 Z M 372,660 373,661 Z M 488,680 489,679 Z M 259,680 V 681 Z M 501,682 502,683 Z M 345,683 346,684 Z M 417,683 418,684 Z M 420,683 421,684 Z M 536,685 535,686 Z M 534,687 535,688 Z M 308,688 309,689 Z M 306,689 307,690 Z M 289,700 290,699 Z M 291,708 292,709 Z M 416,355 H 417 Z M 543,717 544,716 Z M 551,737 552,736 Z M 439,749 H 438 Z M 510,749 511,750 Z M 438,750 437,751 Z M 439,750 440,751 Z M 502,762 503,761 Z M 500,762 501,763 Z M 428,767 V 768 Z M 446,769 447,768 Z M 444,770 445,771 Z M 430,772 431,773 Z M 416,774 V 775 Z M 479,781 480,780 Z M 550,797 551,798 Z M 295,809 V 810 Z M 564,812 565,811 Z M 309,813 310,812 Z M 542,815 541,816 Z M 493,821 494,822 Z M 307,832 V 833 Z M 479,832 480,833 Z M 399,834 400,833 Z M 504,852 505,853 Z M 551,854 552,855 Z M 504,855 505,856 Z M 552,855 553,856 Z M 543,859 542,860 Z M 506,865 507,866 Z M 342,867 343,866 Z M 312,873 313,872 Z M 433,890 432,891 Z M 431,892 V 893 Z M 348,894 349,893 Z M 481,320 V 321 Z M 363,903 364,904 Z M 407,940 V 941 Z M 232,536 233,535 Z M 601,822 C 598.62841,814.05925 597.65814,810.81053 601,822 Z M 607,787 607.2882,788.34695 Z M 608,724 C 604.12446,716.91893 603.83716,716.39401 608,724 Z M 598,874 C 598.08273,915.2636 572.99295,849.77313 598,874 Z M 602,676 602.25892,679.06965 602,676.00001 Z M 600,678 599,679 Z M 623,714 H 621 Z M 626,711 627,712 Z M 632,716 631,717 Z M 587,491 V 493 Z M 582,486 583,484 Z M 508,311 507.6976,313.04104 Z M 628,737 628.06755,740.05355 Z M 632,733 633,734 Z M 331,576 329,577 Z M 326,601 327,602 Z M 522,579 523,578 Z M 527,391 528,392 Z M 596,480 595,481 Z M 562,682 563,683 Z M 539,891 540,892 Z M 567,559 568,560 Z M 538,420 H 537 Z M 508,423 509,424 Z M 499,336 H 498 Z M 499,337 V 338 Z M 438,643 439,644 Z M 364,705 363,706 Z M 367,706 H 365 Z M 418,378 423.67578,382.88265 Z"
         style="fill:#090b0b;fill-opacity:1"
         id="path19" />
    </g>
    <path
       d="M 30,34 C 252.33333,34 474.66667,34 697,34 697,313 697,592 697,871 474.66667,871 252.33333,871 30,871 30,592 30,313 30,34 Z"
       style="fill:none;fill-opacity:1;fill-rule:evenodd;stroke:#282828;stroke-width:1.5;stroke-linejoin:round;stroke-miterlimit:4;stroke-dasharray:none;stroke-opacity:1"
       id="path23" />
  </g>
</svg>
